<?xml version="1.0" encoding="UTF-8"?>
<svg version="1.1" xmlns="http://www.w3.org/2000/svg" width="1120" height="928">
<path d="M0 0 C369.6 0 739.2 0 1120 0 C1120 306.24 1120 612.48 1120 928 C750.4 928 380.8 928 0 928 C0 621.76 0 315.52 0 0 Z " fill="#E9E9E9" transform="translate(0,0)"/>
<path d="M0 0 C37.62 0 75.24 0 114 0 C114 19.8 114 39.6 114 60 C98.82 60 83.64 60 68 60 C68 60.66 68 61.32 68 62 C68.9075 62.2475 69.815 62.495 70.75 62.75 C74.2105785 64.08099173 75.50133738 65.34517096 78 68 C79.98689731 69.35278115 81.98745218 70.68568305 84 72 C86.74201284 74.02386662 88.82658702 75.76878269 90.875 78.5 C93.09128007 81.10738832 95.27626946 82.38610105 98.27734375 83.97265625 C100.92722752 85.55297242 102.85407237 87.80042418 105 90 C106.78267823 91.35157303 108.60008836 92.62799806 110.44921875 93.88671875 C112 95 112 95 114 97 C114.33 85.12 114.66 73.24 115 61 C120.94 61 126.88 61 133 61 C132.98839844 59.49566406 132.97679687 57.99132812 132.96484375 56.44140625 C132.95546751 54.48177207 132.94636713 52.52213655 132.9375 50.5625 C132.92912109 49.56927734 132.92074219 48.57605469 132.91210938 47.55273438 C132.90727539 46.13637695 132.90727539 46.13637695 132.90234375 44.69140625 C132.89448853 43.37958374 132.89448853 43.37958374 132.88647461 42.04125977 C133 40 133 40 134 39 C136.81140151 38.9113874 139.59879424 38.88470416 142.41015625 38.90234375 C143.15616089 38.90335083 143.90216553 38.90435791 144.67077637 38.90539551 C147.46803313 38.91064311 150.26526804 38.92460427 153.0625 38.9375 C159.311875 38.958125 165.56125 38.97875 172 39 C172 26.13 172 13.26 172 0 C191.8 0 211.6 0 232 0 C232 19.8 232 39.6 232 60 C223.42 60.33 214.84 60.66 206 61 C205.95481434 74.45628907 205.91812131 87.91252774 205.89637566 101.3688755 C205.88593882 107.61720219 205.87178129 113.86547427 205.84912109 120.11376953 C205.82738937 126.14378776 205.81543062 132.17375346 205.81024551 138.20380783 C205.80655037 140.50429486 205.79933473 142.80477901 205.78853989 145.10524368 C205.77402079 148.32754986 205.77202226 151.54963903 205.77294922 154.77197266 C205.76575867 155.72287781 205.75856812 156.67378296 205.75115967 157.65350342 C205.76635158 162.5344463 206.15965488 166.40320317 208 171 C208.12375 172.11375 208.12375 172.11375 208.25 173.25 C208.4975 173.8275 208.745 174.405 209 175 C209.928125 175.309375 210.85625 175.61875 211.8125 175.9375 C215.62826881 177.20942294 216.69841357 178.79421891 219 182 C221.56893838 183.28446919 223.76576337 183.32977144 226.625 183.5625 C227.62789062 183.64628906 228.63078125 183.73007813 229.6640625 183.81640625 C230.43492187 183.87699219 231.20578125 183.93757812 232 184 C232.33 187.3 232.66 190.6 233 194 C233.66 194 234.32 194 235 194 C235.33 194.66 235.66 195.32 236 196 C236.99 196.33 237.98 196.66 239 197 C239 197.99 239 198.98 239 200 C239.99 200 240.98 200 242 200 C242 200.66 242 201.32 242 202 C242.9590625 202.1546875 242.9590625 202.1546875 243.9375 202.3125 C244.618125 202.539375 245.29875 202.76625 246 203 C246.33 203.99 246.66 204.98 247 206 C248.83713975 207.05443499 248.83713975 207.05443499 251 208 C252.43957908 208.96672464 253.85658816 209.96784308 255.25 211 C256.30960938 211.7734375 256.30960938 211.7734375 257.390625 212.5625 C257.92171875 213.036875 258.4528125 213.51125 259 214 C259 214.66 259 215.32 259 216 C259.53625 216.061875 260.0725 216.12375 260.625 216.1875 C265.6430563 217.90420347 269.32076167 222.32076167 273 226 C276.5857969 229.2921325 280.13205855 232.42137237 284.1875 235.125 C287 237 287 237 292 242 C292.33 222.86 292.66 203.72 293 184 C313.13 184 333.26 184 354 184 C354 204.46 354 224.92 354 246 C335.52 246 317.04 246 298 246 C304.02721182 252.02721182 309.47079026 257.00490912 317 261 C317 261.66 317 262.32 317 263 C317.8971875 263.433125 317.8971875 263.433125 318.8125 263.875 C321 265 321 265 324 267 C324 267.66 324 268.32 324 269 C324.66 269 325.32 269 326 269 C326 269.66 326 270.32 326 271 C326.66 271 327.32 271 328 271 C329.66666667 272.66666667 331.33333333 274.33333333 333 276 C334.65661761 277.01656081 336.32111559 278.02065076 338 279 C338.33 279.66 338.66 280.32 339 281 C340.051875 281.556875 341.10375 282.11375 342.1875 282.6875 C345.88657841 284.69687593 348.16535782 287.21978658 350.73828125 290.51171875 C351.95013837 292.13884196 351.95013837 292.13884196 354 293 C354 277.82 354 262.64 354 247 C374.13 247 394.26 247 415 247 C415 267.13 415 287.26 415 308 C394.87 308 374.74 308 354 308 C354 316.91 354 325.82 354 335 C356.97 334.01 359.94 333.02 363 332 C366.0625 331.8125 366.0625 331.8125 368 332 C368.79348625 336.87348823 369.11813526 341.52940184 369.09765625 346.46484375 C369.09515869 347.70613037 369.09266113 348.94741699 369.09008789 350.22631836 C369.07643188 352.55835327 369.07643188 352.55835327 369.0625 354.9375 C369.041875 359.908125 369.02125 364.87875 369 370 C384.18 370 399.36 370 415 370 C415 390.46 415 410.92 415 432 C434.8 432 454.6 432 475 432 C475 472.92 475 513.84 475 556 C455.2 556 435.4 556 415 556 C415 576.46 415 596.92 415 618 C394.87 618 374.74 618 354 618 C354 638.13 354 658.26 354 679 C374.13 679 394.26 679 415 679 C415 699.46 415 719.92 415 741 C394.87 741 374.74 741 354 741 C354 761.46 354 781.92 354 803 C374.13 803 394.26 803 415 803 C415 823.46 415 843.92 415 865 C257.59 865 100.18 865 -62 865 C-62 844.54 -62 824.08 -62 803 C-82.13 803 -102.26 803 -123 803 C-123 782.54 -123 762.08 -123 741 C-142.8 741 -162.6 741 -183 741 C-183 720.87 -183 700.74 -183 680 C-174.42 680 -165.84 680 -157 680 C-161.17014457 675.68196545 -161.17014457 675.68196545 -165.8125 672.6875 C-166.864375 672.130625 -167.91625 671.57375 -169 671 C-169 670.34 -169 669.68 -169 669 C-169.721875 668.731875 -170.44375 668.46375 -171.1875 668.1875 C-175.50562279 666.3642926 -178.36848463 664.94727306 -181 661 C-181.99 660.67 -182.98 660.34 -184 660 C-184 666.27 -184 672.54 -184 679 C-203.8 679 -223.6 679 -244 679 C-244 660.52 -244 642.04 -244 623 C-245.98 622.34 -247.96 621.68 -250 621 C-250.66 620.34 -251.32 619.68 -252 619 C-254.34409571 618.66883262 -254.34409571 618.66883262 -257.09228516 618.68115234 C-258.15323395 618.66128265 -259.21418274 618.64141296 -260.30728149 618.62094116 C-261.45626923 618.60938995 -262.60525696 618.59783875 -263.7890625 618.5859375 C-264.96262299 618.56657135 -266.13618347 618.5472052 -267.3453064 618.5272522 C-271.10512961 618.46732336 -274.86498323 618.42101754 -278.625 618.375 C-281.16928442 618.3368325 -283.71355575 618.29778151 -286.2578125 618.2578125 C-292.50514143 618.15994312 -298.75232566 618.08047852 -305 618 C-305 600.84 -305 583.68 -305 566 C-305.66 566 -306.32 566 -307 566 C-310 560.25 -310 560.25 -310 558 C-310.66 558 -311.32 558 -312 558 C-312 557.34 -312 556.68 -312 556 C-329.49 556 -346.98 556 -365 556 C-365 515.08 -365 474.16 -365 432 C-362.03 432 -359.06 432 -356 432 C-356.28427417 430.41532272 -356.57774818 428.8322943 -356.875 427.25 C-357.03742188 426.36828125 -357.19984375 425.4865625 -357.3671875 424.578125 C-357.87219318 422.04732754 -357.87219318 422.04732754 -359.00814819 420.14837646 C-360.15373055 417.66701569 -360.34799936 415.77164772 -360.50244141 413.04785156 C-360.5623526 412.06713684 -360.62226379 411.08642212 -360.68399048 410.07598877 C-360.76693863 408.4992337 -360.76693863 408.4992337 -360.8515625 406.890625 C-360.91532074 405.80867859 -360.97907898 404.72673218 -361.04476929 403.61199951 C-361.24639403 400.15841605 -361.4358424 396.70428655 -361.625 393.25 C-361.75961494 390.90750587 -361.89502202 388.56505712 -362.03125 386.22265625 C-362.36335801 380.48226559 -362.68547326 374.74137935 -363 369 C-363.66 369 -364.32 369 -365 369 C-365 348.87 -365 328.74 -365 308 C-345.2 308 -325.4 308 -305 308 C-305 305.36 -305 302.72 -305 300 C-305.98613281 300.0721875 -306.97226562 300.144375 -307.98828125 300.21875 C-321.99063955 301.15725932 -335.97179628 301.10151784 -350 301 C-350.33 299.68 -350.66 298.36 -351 297 C-348.94423268 295.20007488 -346.88103782 293.41014591 -344.8125 291.625 C-344.23435547 291.11710937 -343.65621094 290.60921875 -343.06054688 290.0859375 C-339.77831195 287.26729508 -337.03917125 285.5965858 -333 284 C-330.75636253 282.27562021 -328.62571071 280.54441434 -326.5 278.6875 C-325.94441406 278.21376953 -325.38882813 277.74003906 -324.81640625 277.25195312 C-322.23714235 275.03378617 -319.78378989 272.78185079 -317.38671875 270.36328125 C-315 268 -315 268 -312.61328125 266.21875 C-307.39310712 262.31912926 -305.4172186 259.53145734 -304.4375 253 C-304.25369733 251.00313147 -304.09465748 249.00307447 -304 247 C-302.84242188 246.99742187 -301.68484375 246.99484375 -300.4921875 246.9921875 C-298.95308709 246.95464847 -297.41402533 246.91550067 -295.875 246.875 C-295.11445313 246.87757813 -294.35390625 246.88015625 -293.5703125 246.8828125 C-289.10920354 246.72898116 -286.73272725 246.21538392 -283.5703125 242.9453125 C-282.72210938 241.97335937 -281.87390625 241.00140625 -281 240 C-280.34 240 -279.68 240 -279 240 C-279 239.01 -279 238.02 -279 237 C-278.030625 236.484375 -277.06125 235.96875 -276.0625 235.4375 C-267.39447839 230.66830474 -267.39447839 230.66830474 -262 223 C-259.9609375 221.1328125 -259.9609375 221.1328125 -257.375 219.125 C-256.53710938 218.46757812 -255.69921875 217.81015625 -254.8359375 217.1328125 C-252 215 -252 215 -250.13549805 214.09594727 C-247.92444924 212.91493396 -246.56659331 211.97266798 -245 210 C-243.98238446 205.56588544 -244.02104266 201.22098227 -244.0625 196.6875 C-244.03833008 194.8612207 -244.03833008 194.8612207 -244.01367188 192.99804688 C-243.97837197 189.99755536 -243.97491915 187.00049489 -244 184 C-242.45675049 183.99383667 -242.45675049 183.99383667 -240.88232422 183.98754883 C-237.0463731 183.96569212 -233.21143824 183.91133647 -229.37597656 183.84741211 C-227.71950051 183.82428871 -226.06287862 183.80984968 -224.40625 183.80444336 C-222.01731079 183.79511157 -219.63064721 183.75403536 -217.2421875 183.70703125 C-216.50757294 183.7109639 -215.77295837 183.71489655 -215.01608276 183.71894836 C-209.25700422 183.55740263 -206.85817296 182.0034923 -203 178 C-202.67 177.01 -202.34 176.02 -202 175 C-200 174 -198 173 -196 172 C-194.29115995 170.37660195 -192.62553283 168.70680947 -191 167 C-185.50953678 162 -185.50953678 162 -183 162 C-183 128.67 -183 95.34 -183 61 C-163.2 61 -143.4 61 -123 61 C-123 77.5 -123 94 -123 111 C-119.13676189 109.06838095 -118.37959517 108.24490251 -116 105 C-115.34 105 -114.68 105 -114 105 C-114 104.34 -114 103.68 -114 103 C-113.34 103 -112.68 103 -112 103 C-112 102.34 -112 101.68 -112 101 C-109.525 100.01 -109.525 100.01 -107 99 C-107 98.34 -107 97.68 -107 97 C-101.08099005 91.37865786 -94.44338878 86.80498079 -87.41015625 82.703125 C-84.69697436 80.78586843 -83.02889022 78.61101906 -81 76 C-79.00934459 74.98152514 -77.00751815 73.98482022 -75 73 C-72.63059391 71.26757466 -70.3391433 69.45889747 -68.05078125 67.62109375 C-66 66 -66 66 -63 64 C-62.67 63.01 -62.34 62.02 -62 61 C-60.68 61 -59.36 61 -58 61 C-58 60.34 -58 59.68 -58 59 C-55.23724161 56.00701175 -52.41476809 53.23726185 -49 51 C-48.34 51 -47.68 51 -47 51 C-47 50.34 -47 49.68 -47 49 C-45.22010315 47.51675263 -43.37336474 46.11329018 -41.5 44.75 C-40.39318238 43.93886592 -39.28641163 43.12766788 -38.1796875 42.31640625 C-37.13039063 41.55199219 -36.08109375 40.78757813 -35 40 C-33.53954854 38.89863644 -32.0808371 37.79495585 -30.625 36.6875 C-28.38984051 35.00303198 -26.16844024 33.46193192 -23.8125 31.9375 C-20.86871116 30.03477672 -20.86871116 30.03477672 -18.25 27.25 C-17.13625 26.13625 -17.13625 26.13625 -16 25 C-15.34 25 -14.68 25 -14 25 C-14 24.34 -14 23.68 -14 23 C-10.97744128 21.02193405 -7.91720744 19.12522622 -4.8203125 17.265625 C-0.56110665 12.92807529 -0.56110665 12.92807529 0 0 Z " fill="#FCFCFC" transform="translate(548,63)"/>
<path d="M0 0 C20.13 0 40.26 0 61 0 C61 40.59 61 81.18 61 123 C80.8 123 100.6 123 121 123 C120.979375 114.21375 120.95875 105.4275 120.9375 96.375 C120.90133746 64.23708519 121.40901343 32.13489484 122 0 C141.8 0 161.6 0 182 0 C182 40.59 182 81.18 182 123 C202.13 123 222.26 123 243 123 C243 131.58 243 140.16 243 149 C239.7 151.64 236.4 154.28 233 157 C231.845 157.99 230.69 158.98 229.5 160 C227 162 227 162 225 162 C224.88398437 162.87978516 224.88398437 162.87978516 224.765625 163.77734375 C223.7443407 166.74219461 222.25290183 167.71018689 219.75 169.5625 C218.93917969 170.16320312 218.12835938 170.76390625 217.29296875 171.3828125 C210.74637681 176 210.74637681 176 208 176 C208 176.99 208 177.98 208 179 C205.91794497 182.29599898 203.47451771 184.26507304 200 186 C194.38039026 186.8738339 188.64592918 186.4041972 183 186 C183.00902344 187.258125 183.01804688 188.51625 183.02734375 189.8125 C183.05536586 193.71958326 182.84769236 196.45243068 181 200 C178.88891235 202.12370371 176.69035165 204.0601325 174.38671875 205.97265625 C171.9452586 207.99036361 171.9452586 207.99036361 169.64453125 210.359375 C166.54751941 213.45181223 163.30982538 216.32676417 160 219.1875 C159.39671875 219.72052734 158.7934375 220.25355469 158.171875 220.80273438 C154.8650585 223.66025516 152.11615353 225.44898562 148 227 C146.01355825 228.41275952 144.07679139 229.89723433 142.1875 231.4375 C141.21167969 232.21996094 140.23585937 233.00242187 139.23046875 233.80859375 C138.49441406 234.53175781 137.75835937 235.25492188 137 236 C137 236.99 137 237.98 137 239 C151.85 239 166.7 239 182 239 C182 241.64 182 244.28 182 247 C162.2 247 142.4 247 122 247 C122 267.13 122 287.26 122 308 C122.66 308 123.32 308 124 308 C125.15446804 310.30893608 125.20720131 311.84131699 125.34130859 314.41455078 C125.39161224 315.32955353 125.44191589 316.24455627 125.4937439 317.18728638 C125.54479279 318.179935 125.59584167 319.17258362 125.6484375 320.1953125 C125.76774627 322.29429834 125.88755402 324.39325586 126.0078125 326.4921875 C126.19300602 329.80313416 126.37443475 333.11414457 126.546875 336.42578125 C126.71522138 339.62053644 126.89946654 342.81407065 127.0859375 346.0078125 C127.13293793 346.98831573 127.17993835 347.96881897 127.22836304 348.97903442 C127.58889168 354.92701938 128.73373472 359.49751704 131 365 C131.1875 368.5 131.1875 368.5 131 371 C128.03 371 125.06 371 122 371 C122 411.92 122 452.84 122 495 C139.49 495 156.98 495 175 495 C175 495.66 175 496.32 175 497 C175.66 497 176.32 497 177 497 C180 502.75 180 502.75 180 505 C180.66 505 181.32 505 182 505 C182 522.16 182 539.32 182 557 C185.733125 556.94199219 189.46625 556.88398437 193.3125 556.82421875 C196.94317502 556.78518299 200.57382633 556.75484677 204.20458984 556.7253418 C206.72064747 556.70025567 209.23663263 556.66617875 211.75244141 556.62280273 C215.37680986 556.561895 219.00021169 556.5337298 222.625 556.51171875 C223.74302002 556.48591232 224.86104004 556.4601059 226.01293945 556.43351746 C231.7350701 556.43147974 236.8653437 556.62455039 241.60083008 560.11882019 C244.73975236 564.33909189 243.95485673 569.71786839 243.78125 574.73828125 C243.77319336 575.83410522 243.76513672 576.9299292 243.75683594 578.05895996 C243.71504509 582.14415668 243.6033516 586.22839702 243.5 590.3125 C243.335 599.449375 243.17 608.58625 243 618 C222.87 618 202.74 618 182 618 C182 638.46 182 658.92 182 680 C162.2 680 142.4 680 122 680 C122 659.54 122 639.08 122 618 C101.87 618 81.74 618 61 618 C61 597.87 61 577.74 61 557 C40.87 557 20.74 557 0 557 C0 536.54 0 516.08 0 495 C20.13 495 40.26 495 61 495 C61 454.08 61 413.16 61 371 C40.87 371 20.74 371 0 371 C0 350.54 0 330.08 0 309 C-20.13 309 -40.26 309 -61 309 C-61 247.62 -61 186.24 -61 123 C-40.87 123 -20.74 123 0 123 C0 82.41 0 41.82 0 0 Z " fill="#E3E3E3" transform="translate(61,124)"/>
<path d="M0 0 C20.13 0 40.26 0 61 0 C61 20.46 61 40.92 61 62 C81.13 62 101.26 62 122 62 C122 102.92 122 143.84 122 186 C101.87 186 81.74 186 61 186 C61 206.46 61 226.92 61 248 C81.13 248 101.26 248 122 248 C122 268.13 122 288.26 122 309 C101.87 309 81.74 309 61 309 C61 329.46 61 349.92 61 371 C81.13 371 101.26 371 122 371 C122 391.46 122 411.92 122 433 C101.87 433 81.74 433 61 433 C61 453.46 61 473.92 61 495 C40.87 495 20.74 495 0 495 C0 331.65 0 168.3 0 0 Z " fill="#FCFDFD" transform="translate(0,433)"/>
<path d="M0 0 C1.15229327 1.38953012 2.29621784 2.7870913 3.390625 4.22265625 C6.02121125 7.12779397 9.27038354 9.09363315 12.5078125 11.26953125 C15.32140202 13.22316786 17.84186977 15.38051223 20.3984375 17.65234375 C21.99211429 18.99336446 23.62368678 20.12534151 25.375 21.25 C28 23 28 23 29 25 C31.01669827 26.13350534 31.01669827 26.13350534 33 27 C33 27.66 33 28.32 33 29 C33.556875 29.2475 34.11375 29.495 34.6875 29.75 C37.39870944 31.21551861 39.59618256 33.07694605 42 35 C43.31138904 35.70885894 44.63777017 36.39456452 46 37 C46 37.66 46 38.32 46 39 C46.763125 39.103125 47.52625 39.20625 48.3125 39.3125 C51.18416484 40.04711194 52.23042094 40.6716065 54 43 C54 43.66 54 44.32 54 45 C54.57492187 45.26425781 55.14984375 45.52851563 55.7421875 45.80078125 C58.1151958 47.06118531 60.03455966 48.50203426 62.125 50.1875 C66.24370449 53.4538236 70.48861905 56.46845865 74.8359375 59.421875 C77 61 77 61 78.6015625 62.640625 C80.06955507 64.26457451 80.06955507 64.26457451 83 65 C83 65.66 83 66.32 83 67 C83.66 67 84.32 67 85 67 C85 67.66 85 68.32 85 69 C85.66 69 86.32 69 87 69 C87 69.66 87 70.32 87 71 C88.36125 71.37125 88.36125 71.37125 89.75 71.75 C93.18743257 73.07208945 94.52234992 74.36250153 97 77 C99.57035411 78.58175637 102.14908897 80.07951412 104.8125 81.5 C108.39675562 85.59629213 107.31514707 89.70552919 107 95 C111.62 95 116.24 95 121 95 C121 95.66 121 96.32 121 97 C121.61875 97.309375 122.2375 97.61875 122.875 97.9375 C124.25 98.625 125.625 99.3125 127 100 C127 100.66 127 101.32 127 102 C128.32 102.66 129.64 103.32 131 104 C131 104.66 131 105.32 131 106 C131.721875 106.0825 132.44375 106.165 133.1875 106.25 C137.62886109 107.43436296 140.21886835 110.19831225 143.375 113.4375 C145.48777272 115.4999686 147.40143616 117.03808007 149.8125 118.6875 C151.3903125 119.8321875 151.3903125 119.8321875 153 121 C153 121.66 153 122.32 153 123 C153.70125 123.226875 154.4025 123.45375 155.125 123.6875 C161.89881735 126.77989488 161.89881735 126.77989488 164 130 C164.76059636 134.61922219 164.56325433 139.14717152 164.375 143.8125 C164.33439453 145.71032227 164.33439453 145.71032227 164.29296875 147.64648438 C164.22233697 150.7660547 164.12373646 153.88215841 164 157 C165.07483643 156.97905273 166.14967285 156.95810547 167.25708008 156.93652344 C171.24327278 156.86414626 175.22940739 156.81820908 179.21606445 156.78027344 C180.94174973 156.76015261 182.66736678 156.73285252 184.39282227 156.69824219 C186.8727297 156.64974242 189.35173628 156.62703696 191.83203125 156.609375 C192.60400345 156.58872986 193.37597565 156.56808472 194.17134094 156.54681396 C199.51793714 156.54457206 199.51793714 156.54457206 202.01049805 158.89941406 C203 161 203 161 203 163 C203.78375 163.061875 204.5675 163.12375 205.375 163.1875 C206.24125 163.455625 207.1075 163.72375 208 164 C208.309375 164.804375 208.61875 165.60875 208.9375 166.4375 C209.288125 167.283125 209.63875 168.12875 210 169 C212.84979639 170.11680706 212.84979639 170.11680706 216 171 C220.65517241 174.31034483 220.65517241 174.31034483 222 177 C222.99 177.33 223.98 177.66 225 178 C225 191.53 225 205.06 225 219 C244.8 219 264.6 219 285 219 C285 239.46 285 259.92 285 281 C265.2 281 245.4 281 225 281 C225 301.13 225 321.26 225 342 C223.68 342 222.36 342 221 342 C220.97679715 334.65448359 220.95904446 327.30897513 220.94818783 319.96342945 C220.94297636 316.55234797 220.93591032 313.14129163 220.92456055 309.73022461 C220.91158495 305.80582992 220.90675742 301.88144529 220.90234375 297.95703125 C220.89460182 296.12553276 220.89460182 296.12553276 220.88670349 294.2570343 C220.88662796 293.1162291 220.88655243 291.97542389 220.88647461 290.80004883 C220.884254 289.79855301 220.88203339 288.79705719 220.87974548 287.76521301 C220.99676619 285.07436047 221.39569646 282.62058175 222 280 C222.66 280 223.32 280 224 280 C224 259.87 224 239.74 224 219 C222.35 218.67 220.7 218.34 219 218 C216.5 215.6875 216.5 215.6875 214 213 C211.50594958 210.88005714 209.17201511 209.09600844 206.3125 207.5 C203.73823227 205.83020472 203.32976754 204.65953509 202 202 C200.06381575 201.32843384 200.06381575 201.32843384 198 201 C197.01 200.34 196.02 199.68 195 199 C195 198.34 195 197.68 195 197 C194.42894531 196.75894531 193.85789062 196.51789063 193.26953125 196.26953125 C190.56190157 194.75493633 188.81808239 192.93918122 186.6875 190.6875 C183.91298692 187.83030275 181.2336514 185.30013124 177.9375 183.0625 C176.968125 182.381875 175.99875 181.70125 175 181 C175 180.34 175 179.68 175 179 C173.6696875 178.6596875 173.6696875 178.6596875 172.3125 178.3125 C168.14141031 176.65980409 166.48540088 175.80120135 164 172 C163.5789619 167.30462573 163.71374834 162.70088842 164 158 C162.72382812 158.01160156 161.44765625 158.02320313 160.1328125 158.03515625 C158.46354313 158.04453417 156.79427217 158.05363437 155.125 158.0625 C154.28324219 158.07087891 153.44148437 158.07925781 152.57421875 158.08789062 C151.76855469 158.09111328 150.96289062 158.09433594 150.1328125 158.09765625 C149.38918457 158.10289307 148.64555664 158.10812988 147.87939453 158.11352539 C146 158 146 158 144 157 C144 156.34 144 155.68 144 155 C143.0409375 154.8453125 143.0409375 154.8453125 142.0625 154.6875 C141.381875 154.460625 140.70125 154.23375 140 154 C139.67 153.01 139.34 152.02 139 151 C136.84974472 149.27195112 136.84974472 149.27195112 134.25 147.625 C131.3057483 145.64119508 128.56492136 143.77320283 126.125 141.1875 C124.13849585 139.14256926 122.614381 138.06511818 120 137 C120 136.01 120 135.02 120 134 C119.0409375 133.8453125 119.0409375 133.8453125 118.0625 133.6875 C117.0415625 133.3471875 117.0415625 133.3471875 116 133 C115.67 132.01 115.34 131.02 115 130 C113.67696283 129.6278958 112.34262065 129.29369827 111 129 C110.67 128.34 110.34 127.68 110 127 C108.02 126.01 108.02 126.01 106 125 C106 115.1 106 105.2 106 95 C103.41027344 95.06960937 100.82054687 95.13921875 98.15234375 95.2109375 C95.6270793 95.25781178 93.10186443 95.29419628 90.57641602 95.32958984 C88.82944837 95.35965146 87.08263028 95.40051371 85.33618164 95.45263672 C82.81619293 95.5259298 80.2982086 95.55956001 77.77734375 95.5859375 C77.00414291 95.61690521 76.23094208 95.64787292 75.43431091 95.67977905 C69.98259113 95.68311668 67.33385254 94.25330582 63.46070862 90.43228149 C61.95693333 88.84299876 61.95693333 88.84299876 59.5625 87.5625 C57.08665648 86.05283932 55.15542224 84.42980795 53 82.5 C50.13940106 79.94051674 47.36642263 77.87023479 44 76 C41.6875 74.4375 41.6875 74.4375 40 73 C40 72.34 40 71.68 40 71 C39.4225 70.9175 38.845 70.835 38.25 70.75 C35.31011435 69.77003812 34.13368844 68.2556135 32 66 C30.8465105 64.9437602 29.6787613 63.90296028 28.5 62.875 C27.9328125 62.37742188 27.365625 61.87984375 26.78125 61.3671875 C24.93976542 59.95376732 23.10422278 58.96904997 21 58 C21 57.01 21 56.02 21 55 C20.030625 54.731875 19.06125 54.46375 18.0625 54.1875 C17.051875 53.795625 16.04125 53.40375 15 53 C14.67 52.01 14.34 51.02 14 50 C12.16715557 48.87483915 12.16715557 48.87483915 10 48 C8.66666667 47.33333333 7.33333333 46.66666667 6 46 C6 45.34 6 44.68 6 44 C5.34 44 4.68 44 4 44 C4 43.34 4 42.68 4 42 C2.58456585 41.80341192 1.16755969 41.61812454 -0.25 41.4375 C-1.03890625 41.33308594 -1.8278125 41.22867188 -2.640625 41.12109375 C-5.01979487 40.99898404 -6.72206416 41.3758792 -9 42 C-9.12352165 36.50081611 -9.2143009 31.00243782 -9.2746582 25.50219727 C-9.29981578 23.63096046 -9.33394593 21.75982205 -9.37719727 19.88891602 C-9.43779677 17.20043697 -9.46619603 14.51325564 -9.48828125 11.82421875 C-9.51408768 10.98662521 -9.5398941 10.14903168 -9.56648254 9.28605652 C-9.56762695 6.9206543 -9.56762695 6.9206543 -9 3 C-5.79667102 0.11834135 -4.35674975 0 0 0 Z " fill="#E3E3E3" transform="translate(556,152)"/>
<path d="M0 0 C20.13 0 40.26 0 61 0 C61 20.46 61 40.92 61 62 C81.13 62 101.26 62 122 62 C122 102.92 122 143.84 122 186 C101.87 186 81.74 186 61 186 C60.23755922 144.63758757 59.90467897 103.36932679 60 62 C40.2 62 20.4 62 0 62 C0 41.54 0 21.08 0 0 Z " fill="#FDFDFD" transform="translate(0,433)"/>
<path d="M0 0 C20.13 0 40.26 0 61 0 C61 40.59 61 81.18 61 123 C40.87 123 20.74 123 0 123 C0 82.41 0 41.82 0 0 Z " fill="#FDFDFD" transform="translate(902,124)"/>
<path d="M0 0 C20.13 0 40.26 0 61 0 C61 40.59 61 81.18 61 123 C40.87 123 20.74 123 0 123 C0 82.41 0 41.82 0 0 Z " fill="#E3E3E3" transform="translate(841,124)"/>
<path d="M0 0 C20.13 0 40.26 0 61 0 C61 40.59 61 81.18 61 123 C40.87 123 20.74 123 0 123 C0 82.41 0 41.82 0 0 Z " fill="#FCFDFD" transform="translate(243,124)"/>
<path d="M0 0 C20.13 0 40.26 0 61 0 C61 40.59 61 81.18 61 123 C40.87 123 20.74 123 0 123 C0 82.41 0 41.82 0 0 Z " fill="#E3E3E3" transform="translate(61,124)"/>
<path d="M0 0 C20.13 0 40.26 0 61 0 C61 40.59 61 81.18 61 123 C40.87 123 20.74 123 0 123 C0 82.41 0 41.82 0 0 Z " fill="#FCFDFD" transform="translate(0,124)"/>
<path d="M0 0 C19.8 0 39.6 0 60 0 C60.76244078 41.36241243 61.09532103 82.63067321 61 124 C40.87 124 20.74 124 0 124 C0 83.08 0 42.16 0 0 Z " fill="#E3E3E3" transform="translate(0,495)"/>
<path d="M0 0 C19.8 0 39.6 0 60 0 C60 40.92 60 81.84 60 124 C40.2 124 20.4 124 0 124 C0 83.08 0 42.16 0 0 Z " fill="#E3E3E3" transform="translate(122,495)"/>
<path d="M0 0 C17.82 0 35.64 0 54 0 C54 40.92 54 81.84 54 124 C33.87 124 13.74 124 -7 124 C-7.12032643 101.77080656 -7.12032643 101.77080656 -7.14648438 92.23828125 C-7.16436346 85.75366784 -7.18543177 79.26918246 -7.22631836 72.78466797 C-7.25910151 67.55212762 -7.27689277 62.31972473 -7.28463173 57.08708954 C-7.29014138 55.0985676 -7.30089969 53.11005251 -7.31719017 51.12158966 C-7.39949538 40.6513382 -7.32468952 31.05645611 -4 21 C-3.69835937 19.85144531 -3.39671875 18.70289063 -3.0859375 17.51953125 C-2.6097231 15.70625334 -2.13052733 13.89375594 -1.6484375 12.08203125 C-0.81158399 8.10445646 -0.44886612 4.03979507 0 0 Z " fill="#E3E3E3" transform="translate(909,495)"/>
<path d="M0 0 C19.8 0 39.6 0 60 0 C60.85099171 41.13126614 60.8689378 81.87027725 60 123 C40.2 123 20.4 123 0 123 C0 82.41 0 41.82 0 0 Z " fill="#FDFDFD" transform="translate(122,124)"/>
<path d="M0 0 C19.8 0 39.6 0 60 0 C60 40.59 60 81.18 60 123 C40.2 123 20.4 123 0 123 C0 82.41 0 41.82 0 0 Z " fill="#FDFDFD" transform="translate(1023,124)"/>
<path d="M0 0 C19.8 0 39.6 0 60 0 C60 40.59 60 81.18 60 123 C40.2 123 20.4 123 0 123 C0 82.41 0 41.82 0 0 Z " fill="#E3E3E3" transform="translate(963,124)"/>
<path d="M0 0 C19.8 0 39.6 0 60 0 C60 40.59 60 81.18 60 123 C40.2 123 20.4 123 0 123 C0 82.41 0 41.82 0 0 Z " fill="#FDFDFD" transform="translate(781,124)"/>
<path d="M0 0 C19.47 0 38.94 0 59 0 C59 40.92 59 81.84 59 124 C39.86 124 20.72 124 1 124 C0 123 0 123 -0.12304783 120.95601559 C-0.12212604 120.04989308 -0.12120424 119.14377058 -0.12025452 118.21018982 C-0.12162918 117.17387421 -0.12300385 116.13755859 -0.12442017 115.06983948 C-0.12082489 113.92329391 -0.11722961 112.77674835 -0.11352539 111.59545898 C-0.11367142 110.39562378 -0.11381744 109.19578857 -0.1139679 107.95959473 C-0.11338894 104.66014809 -0.10835978 101.36076336 -0.10139394 98.0613277 C-0.09515973 94.61665703 -0.09455655 91.17198562 -0.09336853 87.72731018 C-0.09025541 81.2001727 -0.08204229 74.67305189 -0.07201904 68.14592177 C-0.0597632 59.98856042 -0.05427529 51.83119638 -0.04882812 43.67382812 C-0.03907686 29.11587242 -0.0190466 14.55795311 0 0 Z " fill="#E3E3E3" transform="translate(1024,495)"/>
<path d="M0 0 C37.95 0 75.9 0 115 0 C115 20.46 115 40.92 115 62 C97.51 62 80.02 62 62 62 C61.505 60.02 61.505 60.02 61 58 C61 59.32 61 60.64 61 62 C40.87 62 20.74 62 0 62 C0 41.54 0 21.08 0 0 Z " fill="#E2E2E2" transform="translate(547,0)"/>
<path d="M0 0 C19.8 0 39.6 0 60 0 C60.40108809 24.88528793 60.40108809 24.88528793 60.48828125 35.51171875 C60.54801128 42.75676917 60.61858417 50.00055316 60.75439453 57.24462891 C60.86323325 63.08675985 60.92287974 68.92753268 60.94877243 74.77059937 C60.96721802 76.99707419 61.00324089 79.22347648 61.05730057 81.44937134 C61.46570235 98.9654942 61.46570235 98.9654942 57.77752686 104.08496094 C55.26822416 106.0798055 52.8240457 107.51038057 50 109 C49.34 109.99 48.68 110.98 48 112 C46.989375 112.309375 45.97875 112.61875 44.9375 112.9375 C43.968125 113.288125 42.99875 113.63875 42 114 C41.03122943 116.03243548 41.03122943 116.03243548 41 118 C40.34 118 39.68 118 39 118 C38.505 119.485 38.505 119.485 38 121 C27.44610899 128.03592734 12.68419839 123 0 123 C0 82.41 0 41.82 0 0 Z " fill="#E3E3E3" transform="translate(304,124)"/>
<path d="M0 0 C20.13 0 40.26 0 61 0 C61 20.13 61 40.26 61 61 C67.6 61 74.2 61 81 61 C81 81.79 81 102.58 81 124 C74.4 124 67.8 124 61 124 C61 103.54 61 83.08 61 62 C41.2 62 21.4 62 1 62 C1.08378906 67.51203125 1.16757813 73.0240625 1.25390625 78.703125 C1.30461696 82.19400418 1.35501707 85.6848823 1.40429688 89.17578125 C1.48255471 94.71733542 1.56196528 100.25885634 1.64819336 105.80029297 C1.71763592 110.26762967 1.78194793 114.7350134 1.84269524 119.2024765 C1.86678082 120.90734288 1.89271863 122.61218412 1.92053413 124.31699371 C1.95916145 126.7038022 1.99121734 129.09061495 2.02172852 131.47753906 C2.03467453 132.18316483 2.04762054 132.88879059 2.06095886 133.61579895 C2.09635295 136.90099317 2.02347415 139.85995538 1 143 C-0.25433458 139.23699626 -0.10695422 135.72789091 -0.0625 131.8125 C-0.05798828 131.06291016 -0.05347656 130.31332031 -0.04882812 129.54101562 C-0.03706354 127.69397617 -0.01912865 125.84697787 0 124 C-1.32 124 -2.64 124 -4 124 C-4.22042969 123.10087891 -4.22042969 123.10087891 -4.4453125 122.18359375 C-6.48485909 113.94335668 -8.64011895 105.73545426 -10.79833984 97.52563477 C-12.44811868 91.21525656 -13.99617741 84.90250317 -15.359375 78.5234375 C-15.95278665 75.94335604 -15.95278665 75.94335604 -17.0703125 73.37109375 C-18.20610597 70.47434318 -18.14341767 68.08347997 -18 65 C-18.66 65 -19.32 65 -20 65 C-20 63.68 -20 62.36 -20 61 C-13.4 61 -6.8 61 0 61 C0 40.87 0 20.74 0 0 Z " fill="#E3E3E3" transform="translate(243,371)"/>
<path d="M0 0 C11.88 0 23.76 0 36 0 C36 40.92 36 81.84 36 124 C24.12 124 12.24 124 0 124 C0 83.08 0 42.16 0 0 Z " fill="#FEFEFE" transform="translate(1084,495)"/>
<path d="M0 0 C11.88 0 23.76 0 36 0 C36 40.59 36 81.18 36 123 C24.12 123 12.24 123 0 123 C0 82.41 0 41.82 0 0 Z " fill="#E2E2E2" transform="translate(1084,124)"/>
<path d="M0 0 C0.76166977 0.00222061 1.52333954 0.00444122 2.30809021 0.00672913 C3.18098694 0.00684998 4.05388367 0.00697083 4.95323181 0.00709534 C6.33822876 0.01476929 6.33822876 0.01476929 7.75120544 0.02259827 C8.5955011 0.02360535 9.43979675 0.02461243 10.30967712 0.02565002 C13.47639821 0.03089881 16.64310001 0.04485995 19.80979919 0.05775452 C26.88417419 0.07837952 33.95854919 0.09900452 41.24729919 0.12025452 C41.24729919 20.58025452 41.24729919 41.04025452 41.24729919 62.12025452 C4.28729919 62.12025452 -32.67270081 62.12025452 -70.75270081 62.12025452 C-70.75270081 57.17025452 -70.75270081 52.22025452 -70.75270081 47.12025452 C-48.31270081 47.12025452 -25.87270081 47.12025452 -2.75270081 47.12025452 C-3.08270081 46.46025452 -3.41270081 45.80025452 -3.75270081 45.12025452 C-3.85171693 42.51482276 -3.89252666 39.93677449 -3.88551331 37.33119202 C-3.88647003 36.55393768 -3.88742676 35.77668335 -3.88841248 34.97587585 C-3.88909386 33.32657287 -3.88724246 31.67726721 -3.8830719 30.02796936 C-3.87776625 27.52611599 -3.88299569 25.02444571 -3.88941956 22.52259827 C-3.88875792 20.91712912 -3.887475 19.3116601 -3.88551331 17.70619202 C-3.88753754 16.96630035 -3.88956177 16.22640869 -3.89164734 15.46409607 C-3.82450565 0.26240307 -3.82450565 0.26240307 0 0 Z " fill="#E3E3E4" transform="translate(678.7527008056641,803.8797454833984)"/>
<path d="M0 0 C20.13 0 40.26 0 61 0 C61 20.46 61 40.92 61 62 C40.87 62 20.74 62 0 62 C0 41.54 0 21.08 0 0 Z " fill="#FDFDFD" transform="translate(1023,866)"/>
<path d="M0 0 C20.13 0 40.26 0 61 0 C61 20.46 61 40.92 61 62 C40.87 62 20.74 62 0 62 C0 41.54 0 21.08 0 0 Z " fill="#E3E3E3" transform="translate(841,866)"/>
<path d="M0 0 C20.13 0 40.26 0 61 0 C61 20.46 61 40.92 61 62 C40.87 62 20.74 62 0 62 C0 41.54 0 21.08 0 0 Z " fill="#E3E3E3" transform="translate(547,866)"/>
<path d="M0 0 C20.13 0 40.26 0 61 0 C61 20.46 61 40.92 61 62 C40.87 62 20.74 62 0 62 C0 41.54 0 21.08 0 0 Z " fill="#E3E3E3" transform="translate(425,866)"/>
<path d="M0 0 C20.13 0 40.26 0 61 0 C61 20.46 61 40.92 61 62 C40.87 62 20.74 62 0 62 C0 41.54 0 21.08 0 0 Z " fill="#E3E3E3" transform="translate(61,866)"/>
<path d="M0 0 C20.13 0 40.26 0 61 0 C61 20.46 61 40.92 61 62 C40.87 62 20.74 62 0 62 C0 41.54 0 21.08 0 0 Z " fill="#FCFDFD" transform="translate(0,866)"/>
<path d="M0 0 C20.13 0 40.26 0 61 0 C61 20.46 61 40.92 61 62 C40.87 62 20.74 62 0 62 C0 41.54 0 21.08 0 0 Z " fill="#E3E3E4" transform="translate(902,804)"/>
<path d="M0 0 C20.13 0 40.26 0 61 0 C61 20.46 61 40.92 61 62 C40.87 62 20.74 62 0 62 C0 41.54 0 21.08 0 0 Z " fill="#FCFDFD" transform="translate(61,804)"/>
<path d="M0 0 C20.13 0 40.26 0 61 0 C61 20.46 61 40.92 61 62 C40.87 62 20.74 62 0 62 C0 41.54 0 21.08 0 0 Z " fill="#E3E4E4" transform="translate(0,804)"/>
<path d="M0 0 C20.13 0 40.26 0 61 0 C61 20.46 61 40.92 61 62 C40.87 62 20.74 62 0 62 C0 41.54 0 21.08 0 0 Z " fill="#E3E3E3" transform="translate(841,742)"/>
<path d="M0 0 C20.13 0 40.26 0 61 0 C61 20.46 61 40.92 61 62 C40.87 62 20.74 62 0 62 C0 41.54 0 21.08 0 0 Z " fill="#FCFDFD" transform="translate(243,742)"/>
<path d="M0 0 C20.13 0 40.26 0 61 0 C61 20.46 61 40.92 61 62 C40.87 62 20.74 62 0 62 C0 41.54 0 21.08 0 0 Z " fill="#E3E3E4" transform="translate(61,742)"/>
<path d="M0 0 C20.13 0 40.26 0 61 0 C61 20.46 61 40.92 61 62 C40.87 62 20.74 62 0 62 C0 41.54 0 21.08 0 0 Z " fill="#FCFDFD" transform="translate(0,742)"/>
<path d="M0 0 C20.13 0 40.26 0 61 0 C61 20.46 61 40.92 61 62 C40.87 62 20.74 62 0 62 C0 41.54 0 21.08 0 0 Z " fill="#E3E3E3" transform="translate(61,619)"/>
<path d="M0 0 C20.13 0 40.26 0 61 0 C61 20.46 61 40.92 61 62 C40.87 62 20.74 62 0 62 C0 41.54 0 21.08 0 0 Z " fill="#E3E3E3" transform="translate(902,247)"/>
<path d="M0 0 C20.13 0 40.26 0 61 0 C61 20.46 61 40.92 61 62 C40.87 62 20.74 62 0 62 C0 41.54 0 21.08 0 0 Z " fill="#E3E3E3" transform="translate(0,247)"/>
<path d="M0 0 C20.13 0 40.26 0 61 0 C61 20.46 61 40.92 61 62 C40.87 62 20.74 62 0 62 C0 41.54 0 21.08 0 0 Z " fill="#FDFDFD" transform="translate(61,247)"/>
<path d="M0 0 C20.13 0 40.26 0 61 0 C61 20.46 61 40.92 61 62 C40.87 62 20.74 62 0 62 C0 41.54 0 21.08 0 0 Z " fill="#FDFDFD" transform="translate(902,0)"/>
<path d="M0 0 C20.13 0 40.26 0 61 0 C61 20.46 61 40.92 61 62 C40.87 62 20.74 62 0 62 C0 41.54 0 21.08 0 0 Z " fill="#E2E3E3" transform="translate(841,0)"/>
<path d="M0 0 C20.13 0 40.26 0 61 0 C61 20.46 61 40.92 61 62 C40.87 62 20.74 62 0 62 C0 41.54 0 21.08 0 0 Z " fill="#FCFDFD" transform="translate(486,0)"/>
<path d="M0 0 C20.13 0 40.26 0 61 0 C61 20.46 61 40.92 61 62 C40.87 62 20.74 62 0 62 C0 41.54 0 21.08 0 0 Z " fill="#E2E2E2" transform="translate(61,0)"/>
<path d="M0 0 C20.13 0 40.26 0 61 0 C61 20.46 61 40.92 61 62 C40.87 62 20.74 62 0 62 C0 41.54 0 21.08 0 0 Z " fill="#FDFDFD" transform="translate(0,0)"/>
<path d="M0 0 C0.99 0 1.98 0 3 0 C3 2.31 3 4.62 3 7 C22.47 7 41.94 7 62 7 C62 27.46 62 47.92 62 69 C42.2 69 22.4 69 2 69 C2 48.54 2 28.08 2 7 C-0.64 7 -3.28 7 -6 7 C-5.34 6.67 -4.68 6.34 -4 6 C-3.3162955 4.67532254 -2.65035814 3.34136367 -2 2 C-1.34 1.34 -0.68 0.68 0 0 Z " fill="#E3E3E3" transform="translate(718,735)"/>
<path d="M0 0 C20.13 0 40.26 0 61 0 C61 20.13 61 40.26 61 61 C40.87 61 20.74 61 0 61 C0 40.87 0 20.74 0 0 Z " fill="#E3E3E3" transform="translate(902,681)"/>
<path d="M0 0 C20.13 0 40.26 0 61 0 C61 20.13 61 40.26 61 61 C40.87 61 20.74 61 0 61 C0 40.87 0 20.74 0 0 Z " fill="#E3E3E3" transform="translate(122,681)"/>
<path d="M0 0 C20.13 0 40.26 0 61 0 C61 20.13 61 40.26 61 61 C40.87 61 20.74 61 0 61 C0 40.87 0 20.74 0 0 Z " fill="#FCFDFD" transform="translate(61,681)"/>
<path d="M0 0 C20.13 0 40.26 0 61 0 C61 20.13 61 40.26 61 61 C40.87 61 20.74 61 0 61 C0 40.87 0 20.74 0 0 Z " fill="#E3E3E3" transform="translate(0,681)"/>
<path d="M0 0 C20.13 0 40.26 0 61 0 C61 20.13 61 40.26 61 61 C40.87 61 20.74 61 0 61 C0 40.87 0 20.74 0 0 Z " fill="#FCFDFD" transform="translate(0,310)"/>
<path d="M0 0 C20.13 0 40.26 0 61 0 C61 20.13 61 40.26 61 61 C40.87 61 20.74 61 0 61 C0 40.87 0 20.74 0 0 Z " fill="#E3E3E3" transform="translate(902,63)"/>
<path d="M0 0 C20.13 0 40.26 0 61 0 C61 20.13 61 40.26 61 61 C40.87 61 20.74 61 0 61 C0 40.87 0 20.74 0 0 Z " fill="#FDFDFD" transform="translate(841,63)"/>
<path d="M0 0 C20.13 0 40.26 0 61 0 C61 20.13 61 40.26 61 61 C40.87 61 20.74 61 0 61 C0 40.87 0 20.74 0 0 Z " fill="#E3E3E3" transform="translate(243,63)"/>
<path d="M0 0 C20.13 0 40.26 0 61 0 C61 20.13 61 40.26 61 61 C40.87 61 20.74 61 0 61 C0 40.87 0 20.74 0 0 Z " fill="#FDFDFD" transform="translate(61,63)"/>
<path d="M0 0 C19.8 0 39.6 0 60 0 C60 20.46 60 40.92 60 62 C40.2 62 20.4 62 0 62 C0 41.54 0 21.08 0 0 Z " fill="#E3E3E3" transform="translate(963,866)"/>
<path d="M0 0 C19.8 0 39.6 0 60 0 C60 20.46 60 40.92 60 62 C40.2 62 20.4 62 0 62 C0 41.54 0 21.08 0 0 Z " fill="#E3E3E3" transform="translate(720,866)"/>
<path d="M0 0 C19.8 0 39.6 0 60 0 C60 20.46 60 40.92 60 62 C40.2 62 20.4 62 0 62 C0 41.54 0 21.08 0 0 Z " fill="#FDFDFD" transform="translate(365,866)"/>
<path d="M0 0 C19.8 0 39.6 0 60 0 C60 20.46 60 40.92 60 62 C40.2 62 20.4 62 0 62 C0 41.54 0 21.08 0 0 Z " fill="#FDFDFD" transform="translate(244,866)"/>
<path d="M0 0 C19.8 0 39.6 0 60 0 C60 20.46 60 40.92 60 62 C40.2 62 20.4 62 0 62 C0 41.54 0 21.08 0 0 Z " fill="#FCFDFD" transform="translate(122,866)"/>
<path d="M0 0 C19.8 0 39.6 0 60 0 C60 20.46 60 40.92 60 62 C40.2 62 20.4 62 0 62 C0 41.54 0 21.08 0 0 Z " fill="#E4E4E4" transform="translate(1023,804)"/>
<path d="M0 0 C19.8 0 39.6 0 60 0 C60 20.46 60 40.92 60 62 C40.2 62 20.4 62 0 62 C0 41.54 0 21.08 0 0 Z " fill="#FCFDFD" transform="translate(963,804)"/>
<path d="M0 0 C19.8 0 39.6 0 60 0 C60 20.46 60 40.92 60 62 C40.2 62 20.4 62 0 62 C0 41.54 0 21.08 0 0 Z " fill="#E3E3E4" transform="translate(781,804)"/>
<path d="M0 0 C19.8 0 39.6 0 60 0 C60 20.46 60 40.92 60 62 C40.2 62 20.4 62 0 62 C0 41.54 0 21.08 0 0 Z " fill="#E3E3E3" transform="translate(963,742)"/>
<path d="M0 0 C19.8 0 39.6 0 60 0 C60 20.46 60 40.92 60 62 C40.2 62 20.4 62 0 62 C0 41.54 0 21.08 0 0 Z " fill="#E3E3E3" transform="translate(304,742)"/>
<path d="M0 0 C19.8 0 39.6 0 60 0 C60 20.46 60 40.92 60 62 C40.2 62 20.4 62 0 62 C0 41.54 0 21.08 0 0 Z " fill="#FDFDFD" transform="translate(1023,742)"/>
<path d="M0 0 C19.8 0 39.6 0 60 0 C60 20.46 60 40.92 60 62 C40.2 62 20.4 62 0 62 C0 41.54 0 21.08 0 0 Z " fill="#E3E3E3" transform="translate(183,742)"/>
<path d="M0 0 C19.8 0 39.6 0 60 0 C60 20.46 60 40.92 60 62 C40.2 62 20.4 62 0 62 C0 41.54 0 21.08 0 0 Z " fill="#FDFDFD" transform="translate(1023,619)"/>
<path d="M0 0 C19.8 0 39.6 0 60 0 C60 20.46 60 40.92 60 62 C40.2 62 20.4 62 0 62 C0 41.54 0 21.08 0 0 Z " fill="#E3E3E3" transform="translate(963,433)"/>
<path d="M0 0 C19.8 0 39.6 0 60 0 C60 20.46 60 40.92 60 62 C40.2 62 20.4 62 0 62 C0 41.54 0 21.08 0 0 Z " fill="#E3E3E3" transform="translate(61,433)"/>
<path d="M0 0 C19.8 0 39.6 0 60 0 C60 20.46 60 40.92 60 62 C40.2 62 20.4 62 0 62 C0 41.54 0 21.08 0 0 Z " fill="#E3E3E3" transform="translate(122,371)"/>
<path d="M0 0 C19.8 0 39.6 0 60 0 C60 20.46 60 40.92 60 62 C40.2 62 20.4 62 0 62 C0 41.54 0 21.08 0 0 Z " fill="#FDFDFD" transform="translate(963,247)"/>
<path d="M0 0 C19.8 0 39.6 0 60 0 C60 20.46 60 40.92 60 62 C40.2 62 20.4 62 0 62 C0 41.54 0 21.08 0 0 Z " fill="#FCFDFD" transform="translate(183,247)"/>
<path d="M0 0 C19.8 0 39.6 0 60 0 C60 20.46 60 40.92 60 62 C40.2 62 20.4 62 0 62 C0 41.54 0 21.08 0 0 Z " fill="#E3E3E3" transform="translate(122,247)"/>
<path d="M0 0 C19.8 0 39.6 0 60 0 C60 20.46 60 40.92 60 62 C40.2 62 20.4 62 0 62 C0 41.54 0 21.08 0 0 Z " fill="#E2E2E2" transform="translate(963,0)"/>
<path d="M0 0 C19.8 0 39.6 0 60 0 C60 20.46 60 40.92 60 62 C40.2 62 20.4 62 0 62 C0 41.54 0 21.08 0 0 Z " fill="#FDFDFD" transform="translate(781,0)"/>
<path d="M0 0 C19.8 0 39.6 0 60 0 C60 20.46 60 40.92 60 62 C40.2 62 20.4 62 0 62 C0 41.54 0 21.08 0 0 Z " fill="#E2E3E3" transform="translate(426,0)"/>
<path d="M0 0 C19.8 0 39.6 0 60 0 C60 20.46 60 40.92 60 62 C40.2 62 20.4 62 0 62 C0 41.54 0 21.08 0 0 Z " fill="#FDFDFD" transform="translate(365,0)"/>
<path d="M0 0 C19.8 0 39.6 0 60 0 C60 20.46 60 40.92 60 62 C40.2 62 20.4 62 0 62 C0 41.54 0 21.08 0 0 Z " fill="#FDFDFD" transform="translate(244,0)"/>
<path d="M0 0 C19.8 0 39.6 0 60 0 C60 20.46 60 40.92 60 62 C40.2 62 20.4 62 0 62 C0 41.54 0 21.08 0 0 Z " fill="#E3E3E3" transform="translate(183,0)"/>
<path d="M0 0 C19.8 0 39.6 0 60 0 C60 20.46 60 40.92 60 62 C40.2 62 20.4 62 0 62 C0 41.54 0 21.08 0 0 Z " fill="#FDFDFD" transform="translate(122,0)"/>
<path d="M0 0 C19.8 0 39.6 0 60 0 C60 20.46 60 40.92 60 62 C50.285625 62.020625 40.57125 62.04125 30.5625 62.0625 C27.49138916 62.071604 24.42027832 62.08070801 21.25610352 62.09008789 C18.83870487 62.09300679 16.42130574 62.09555541 14.00390625 62.09765625 C12.7351062 62.10277222 11.46630615 62.10788818 10.15905762 62.11315918 C8.96131714 62.11328003 7.76357666 62.11340088 6.52954102 62.11352539 C4.96067894 62.11685631 4.96067894 62.11685631 3.36012268 62.12025452 C1 62 1 62 0 61 C-0.09391296 59.09756238 -0.11743658 57.19161541 -0.11352539 55.28686523 C-0.11344986 54.0656749 -0.11337433 52.84448456 -0.11329651 51.58628845 C-0.10818911 50.24372314 -0.10297311 48.90115825 -0.09765625 47.55859375 C-0.09579199 46.19238842 -0.09436813 44.82618243 -0.09336853 43.4599762 C-0.08954394 39.85798305 -0.07971417 36.25603 -0.06866455 32.65405273 C-0.05844916 28.98096265 -0.05381594 25.30786592 -0.04882812 21.63476562 C-0.03862203 14.42314163 -0.01905038 7.21162785 0 0 Z " fill="#FDFDFD" transform="translate(1023,0)"/>
<path d="M0 0 C8.58 -0.103125 17.16 -0.20625 26 -0.3125 C30.04121094 -0.38078003 30.04121094 -0.38078003 34.1640625 -0.45043945 C36.31769569 -0.46505294 38.47134277 -0.47779157 40.625 -0.48828125 C41.7284375 -0.51386108 42.831875 -0.53944092 43.96875 -0.5657959 C49.70561139 -0.5690203 54.85216519 -0.3851739 59.60083008 3.11882019 C62.73975236 7.33909189 61.95485673 12.71786839 61.78125 17.73828125 C61.77319336 18.83410522 61.76513672 19.9299292 61.75683594 21.05895996 C61.71504509 25.14415668 61.6033516 29.22839702 61.5 33.3125 C61.335 42.449375 61.17 51.58625 61 61 C40.87 61 20.74 61 0 61 C0 40.87 0 20.74 0 0 Z " fill="#E3E3E3" transform="translate(243,681)"/>
<path d="M0 0 C33.34104938 0 33.34104938 0 46.3125 0.5 C53.0878125 0.7475 53.0878125 0.7475 60 1 C60 21.13 60 41.26 60 62 C40.2 62 20.4 62 0 62 C0 41.54 0 21.08 0 0 Z " fill="#E3E3E3" transform="translate(122,804)"/>
<path d="M0 0 C20.13 0 40.26 0 61 0 C60.67 20.13 60.34 40.26 60 61 C40.2 61 20.4 61 0 61 C0 40.87 0 20.74 0 0 Z " fill="#FDFDFD" transform="translate(61,371)"/>
<path d="M0 0 C19.8 0 39.6 0 60 0 C60.33 20.13 60.66 40.26 61 61 C40.87 61 20.74 61 0 61 C0 40.87 0 20.74 0 0 Z " fill="#E3E3E3" transform="translate(61,310)"/>
<path d="M0 0 C19.8 0 39.6 0 60 0 C60 20.13 60 40.26 60 61 C40.2 61 20.4 61 0 61 C0 40.87 0 20.74 0 0 Z " fill="#E3E3E3" transform="translate(1023,681)"/>
<path d="M0 0 C19.8 0 39.6 0 60 0 C60 20.13 60 40.26 60 61 C40.2 61 20.4 61 0 61 C0 40.87 0 20.74 0 0 Z " fill="#FDFDFD" transform="translate(963,681)"/>
<path d="M0 0 C19.8 0 39.6 0 60 0 C60 20.13 60 40.26 60 61 C40.2 61 20.4 61 0 61 C0 40.87 0 20.74 0 0 Z " fill="#FCFDFD" transform="translate(183,681)"/>
<path d="M0 0 C19.8 0 39.6 0 60 0 C60 20.13 60 40.26 60 61 C40.2 61 20.4 61 0 61 C0 40.87 0 20.74 0 0 Z " fill="#FCFDFD" transform="translate(122,619)"/>
<path d="M0 0 C19.8 0 39.6 0 60 0 C60 20.13 60 40.26 60 61 C40.2 61 20.4 61 0 61 C0 40.87 0 20.74 0 0 Z " fill="#FCFDFD" transform="translate(122,433)"/>
<path d="M0 0 C19.8 0 39.6 0 60 0 C60 20.13 60 40.26 60 61 C40.2 61 20.4 61 0 61 C0 40.87 0 20.74 0 0 Z " fill="#E3E3E4" transform="translate(1023,371)"/>
<path d="M0 0 C19.8 0 39.6 0 60 0 C60 20.13 60 40.26 60 61 C40.2 61 20.4 61 0 61 C0 40.87 0 20.74 0 0 Z " fill="#FDFDFD" transform="translate(963,371)"/>
<path d="M0 0 C19.8 0 39.6 0 60 0 C60 20.13 60 40.26 60 61 C40.2 61 20.4 61 0 61 C0 40.87 0 20.74 0 0 Z " fill="#E3E3E3" transform="translate(0,371)"/>
<path d="M0 0 C19.8 0 39.6 0 60 0 C60 20.13 60 40.26 60 61 C40.2 61 20.4 61 0 61 C0 40.87 0 20.74 0 0 Z " fill="#E3E3E3" transform="translate(963,310)"/>
<path d="M0 0 C19.8 0 39.6 0 60 0 C60 20.13 60 40.26 60 61 C40.2 61 20.4 61 0 61 C0 40.87 0 20.74 0 0 Z " fill="#FCFDFD" transform="translate(122,310)"/>
<path d="M0 0 C19.8 0 39.6 0 60 0 C60 20.13 60 40.26 60 61 C40.2 61 20.4 61 0 61 C0 40.87 0 20.74 0 0 Z " fill="#FDFDFD" transform="translate(963,63)"/>
<path d="M0 0 C19.8 0 39.6 0 60 0 C60 20.13 60 40.26 60 61 C40.2 61 20.4 61 0 61 C0 40.87 0 20.74 0 0 Z " fill="#E3E3E3" transform="translate(781,63)"/>
<path d="M0 0 C19.8 0 39.6 0 60 0 C60 20.13 60 40.26 60 61 C40.2 61 20.4 61 0 61 C0 40.87 0 20.74 0 0 Z " fill="#E3E3E3" transform="translate(365,63)"/>
<path d="M0 0 C19.8 0 39.6 0 60 0 C60 20.13 60 40.26 60 61 C40.2 61 20.4 61 0 61 C0 40.87 0 20.74 0 0 Z " fill="#E3E3E3" transform="translate(122,63)"/>
<path d="M0 0 C19.47 0 38.94 0 59 0 C59 20.46 59 40.92 59 62 C39.53 62 20.06 62 0 62 C0 41.54 0 21.08 0 0 Z " fill="#E3E3E3" transform="translate(305,866)"/>
<path d="M0 0 C19.47 0 38.94 0 59 0 C59 20.46 59 40.92 59 62 C39.53 62 20.06 62 0 62 C0 41.54 0 21.08 0 0 Z " fill="#E2E2E2" transform="translate(721,0)"/>
<path d="M0 0 C19.47 0 38.94 0 59 0 C59 20.46 59 40.92 59 62 C39.53 62 20.06 62 0 62 C0 41.54 0 21.08 0 0 Z " fill="#E3E3E3" transform="translate(305,0)"/>
<path d="M0 0 C6.1875 -0.020625 12.375 -0.04125 18.75 -0.0625 C20.65620117 -0.071604 22.56240234 -0.08070801 24.52636719 -0.09008789 C26.11653575 -0.0930209 27.7067051 -0.09556612 29.296875 -0.09765625 C30.05822754 -0.10277222 30.81958008 -0.10788818 31.60400391 -0.11315918 C41.10653001 -0.11457747 50.46996563 0.52349828 60 1 C60 20.8 60 40.6 60 61 C40.2 61 20.4 61 0 61 C0 40.87 0 20.74 0 0 Z " fill="#FDFDFD" transform="translate(304,804)"/>
<path d="M0 0 C1.02814316 0.00222061 2.05628632 0.00444122 3.11558533 0.00672913 C4.88174194 0.0069104 4.88174194 0.0069104 6.68357849 0.00709534 C8.55439087 0.01476929 8.55439087 0.01476929 10.46299744 0.02259827 C11.60216614 0.02360535 12.74133484 0.02461243 13.9150238 0.02565002 C18.19013977 0.03090114 22.46524144 0.04486225 26.74034119 0.05775452 C36.28971619 0.07837952 45.83909119 0.09900452 55.67784119 0.12025452 C55.67784119 20.25025452 55.67784119 40.38025452 55.67784119 61.12025452 C35.87784119 61.12025452 16.07784119 61.12025452 -4.32215881 61.12025452 C-4.32215881 41.41481579 -4.32215881 41.41481579 -4.13856506 33.08900452 C-4.11874069 32.16100037 -4.09891632 31.23299622 -4.07849121 30.27687073 C-4.03664272 28.3582688 -3.99376704 26.43968899 -3.94984436 24.52113342 C-3.88349766 21.56858091 -3.82449468 18.61593115 -3.76551819 15.66322327 C-3.72364621 13.78430703 -3.68134546 11.90540029 -3.63856506 10.02650452 C-3.61349632 8.70338257 -3.61349632 8.70338257 -3.58792114 7.35353088 C-3.41030954 0.17660512 -3.41030954 0.17660512 0 0 Z " fill="#FDFDFD" transform="translate(1027.3221588134766,309.87974548339844)"/>
<path d="M0 0 C0 12.21 0 24.42 0 37 C-1.32 37.33 -2.64 37.66 -4 38 C-4.69937532 39.31647119 -5.36729133 40.65022151 -6 42 C-7.485 42.495 -7.485 42.495 -9 43 C-9 43.66 -9 44.32 -9 45 C-9.7425 45.268125 -10.485 45.53625 -11.25 45.8125 C-13.87046481 46.94406435 -15.7434989 48.28817158 -18 50 C-18.66 50 -19.32 50 -20 50 C-20.4640625 50.928125 -20.4640625 50.928125 -20.9375 51.875 C-21.625 53.25 -22.3125 54.625 -23 56 C-35.21 56 -47.42 56 -60 56 C-59.6449303 65.2760963 -59.6449303 65.2760963 -59.18920898 74.54736328 C-59.00906391 83.86454399 -59.00906391 83.86454399 -61.79956055 87.06201172 C-64.13089439 88.58161908 -66.50176375 89.77922226 -69 91 C-70.92954899 92.43348794 -70.92954899 92.43348794 -72.65234375 93.9921875 C-73.20083984 94.46914063 -73.74933594 94.94609375 -74.31445312 95.4375 C-74.85005859 95.911875 -75.38566406 96.38625 -75.9375 96.875 C-81.7329987 102 -81.7329987 102 -84 102 C-84 102.66 -84 103.32 -84 104 C-86.475 104.99 -86.475 104.99 -89 106 C-89 106.66 -89 107.32 -89 108 C-90.8984375 109.65625 -90.8984375 109.65625 -93.375 111.5 C-95.72904362 113.26366443 -97.9191905 114.9191905 -100 117 C-102.15478516 117.22705078 -102.15478516 117.22705078 -104.7890625 117.1953125 C-105.73007812 117.18886719 -106.67109375 117.18242187 -107.640625 117.17578125 C-108.62546875 117.15902344 -109.6103125 117.14226562 -110.625 117.125 C-112.11386719 117.11146484 -112.11386719 117.11146484 -113.6328125 117.09765625 C-116.08878134 117.07404116 -118.54427168 117.04110799 -121 117 C-121.11644156 113.91698584 -121.18732432 110.83453877 -121.25 107.75 C-121.28351563 106.87730469 -121.31703125 106.00460937 -121.3515625 105.10546875 C-121.45054931 98.62183252 -121.45054931 98.62183252 -119.109375 95.390625 C-117 94 -117 94 -115 94 C-115 93.34 -115 92.68 -115 92 C-114.071875 91.5875 -113.14375 91.175 -112.1875 90.75 C-109.07312814 89.04014879 -107.95780365 87.8388153 -106 85 C-105.34 85 -104.68 85 -104 85 C-104 84.34 -104 83.68 -104 83 C-101.525 82.01 -101.525 82.01 -99 81 C-99 80.34 -99 79.68 -99 79 C-98.2678125 78.74863281 -97.535625 78.49726563 -96.78125 78.23828125 C-93.79052916 76.90673841 -91.90083499 75.39812799 -89.5 73.1875 C-88.71496094 72.46820313 -87.92992187 71.74890625 -87.12109375 71.0078125 C-85.57972863 69.54876706 -84.06326981 68.06326981 -82.5625 66.5625 C-81.716875 65.716875 -80.87125 64.87125 -80 64 C-79.27167969 63.23945313 -78.54335938 62.47890625 -77.79296875 61.6953125 C-70.39807681 54.40265409 -70.39807681 54.40265409 -64.875 54.4375 C-62.956875 54.7159375 -62.956875 54.7159375 -61 55 C-61.0825 54.0925 -61.165 53.185 -61.25 52.25 C-61 49 -61 49 -59.1875 46.625 C-57 45 -57 45 -54 45 C-53.731875 44.360625 -53.46375 43.72125 -53.1875 43.0625 C-52 41 -52 41 -49 40 C-49 39.34 -49 38.68 -49 38 C-46.86400764 36.35900587 -44.7244059 34.82493817 -42.5 33.3125 C-37.52971922 29.86642193 -32.86215194 26.33950857 -28.453125 22.1796875 C-27 21 -27 21 -25 21 C-25 20.34 -25 19.68 -25 19 C-23.35546875 17.52734375 -23.35546875 17.52734375 -21.1875 15.9375 C-20.47980469 15.41027344 -19.77210938 14.88304687 -19.04296875 14.33984375 C-17 13 -17 13 -14 12 C-12.99357052 10.67151309 -11.99307821 9.33849671 -11 8 C-10.34 8 -9.68 8 -9 8 C-9 7.34 -9 6.68 -9 6 C-7.5390625 4.4921875 -7.5390625 4.4921875 -5.625 2.875 C-4.99851562 2.33617187 -4.37203125 1.79734375 -3.7265625 1.2421875 C-2 0 -2 0 0 0 Z " fill="#E3E3E3" transform="translate(425,254)"/>
<path d="M0 0 C19.8 0 39.6 0 60 0 C60 19.8 60 39.6 60 60 C40.2 60 20.4 60 0 60 C0 40.2 0 20.4 0 0 Z " fill="#FDFDFD" transform="translate(426,63)"/>
<path d="M0 0 C19.8 0 39.6 0 60 0 C60 19.8 60 39.6 60 60 C40.2 60 20.4 60 0 60 C0 40.2 0 20.4 0 0 Z " fill="#FDFDFD" transform="translate(304,63)"/>
<path d="M0 0 C19.8 0 39.6 0 60 0 C60 19.8 60 39.6 60 60 C40.2 60 20.4 60 0 60 C0 40.2 0 20.4 0 0 Z " fill="#FDFDFE" transform="translate(183,63)"/>
<path d="M0 0 C19.47 0 38.94 0 59 0 C59 20.13 59 40.26 59 61 C39.53 61 20.06 61 0 61 C0 40.87 0 20.74 0 0 Z " fill="#FDFDFE" transform="translate(1024,433)"/>
<path d="M0 0 C19.47 0 38.94 0 59 0 C59 20.13 59 40.26 59 61 C39.53 61 20.06 61 0 61 C0 40.87 0 20.74 0 0 Z " fill="#E3E3E3" transform="translate(1024,248)"/>
<path d="M0 0 C19.47 0 38.94 0 59 0 C59 19.8 59 39.6 59 60 C32.15999097 61.16695691 32.15999097 61.16695691 19.36621094 61.13037109 C17.04616299 61.12481107 14.72629362 61.13047691 12.40625 61.13671875 C10.91927041 61.13606091 9.43229093 61.13478591 7.9453125 61.1328125 C5.97328857 61.13112061 5.97328857 61.13112061 3.96142578 61.12939453 C1 61 1 61 0 60 C-0.09386381 58.1281906 -0.11743804 56.2528194 -0.11352539 54.37866211 C-0.11344986 53.17749252 -0.11337433 51.97632294 -0.11329651 50.73875427 C-0.10813522 49.4314888 -0.10297394 48.12422333 -0.09765625 46.77734375 C-0.09579198 45.43355868 -0.09436812 44.08977293 -0.09336853 42.74598694 C-0.08954402 39.20317723 -0.07971432 35.6604083 -0.06866455 32.11761475 C-0.05844899 28.50484784 -0.0538159 24.89207416 -0.04882812 21.27929688 C-0.03862218 14.18616187 -0.01905051 7.09313893 0 0 Z " fill="#E3E3E3" transform="translate(1024,63)"/>
<path d="M0 0 C18.81 0 37.62 0 57 0 C57 20.46 57 40.92 57 62 C38.19 62 19.38 62 0 62 C0 41.54 0 21.08 0 0 Z " fill="#FDFDFD" transform="translate(663,0)"/>
<path d="M0 0 C0.70366699 0.00402832 1.40733398 0.00805664 2.13232422 0.01220703 C4.74994138 0.03306678 7.36718556 0.08891274 9.984375 0.140625 C15.841875 0.223125 21.699375 0.305625 27.734375 0.390625 C27.734375 20.520625 27.734375 40.650625 27.734375 61.390625 C7.934375 61.390625 -11.865625 61.390625 -32.265625 61.390625 C-32.36875 53.8625 -32.471875 46.334375 -32.578125 38.578125 C-32.62364502 36.20391357 -32.66916504 33.82970215 -32.71606445 31.38354492 C-32.73066566 29.50440892 -32.74340719 27.62525715 -32.75390625 25.74609375 C-32.77948608 24.76821899 -32.80506592 23.79034424 -32.8314209 22.78283691 C-32.83308004 20.21946242 -32.80142118 17.8970089 -32.265625 15.390625 C-29.81097662 13.22440593 -28.26485421 12.62573776 -25.140625 11.890625 C-23.17434608 11.53804349 -23.17434608 11.53804349 -21.89453125 9.98046875 C-19.64912439 7.78890858 -17.14019142 6.81456497 -14.30078125 5.55078125 C-12.12971229 4.48247128 -12.12971229 4.48247128 -10.6550293 2.3425293 C-7.27804003 -0.41613313 -4.16402925 -0.11258925 0 0 Z " fill="#E3E3E3" transform="translate(813.265625,680.609375)"/>
<path d="M0 0 C1.17532288 0.0306958 1.17532288 0.0306958 2.37438965 0.06201172 C3.46088806 0.0680542 3.46088806 0.0680542 4.56933594 0.07421875 C7.27153911 0.09512554 9.97338079 0.15097157 12.6751709 0.20263672 C18.7182959 0.28513672 24.7614209 0.36763672 30.9876709 0.45263672 C30.9876709 20.91263672 30.9876709 41.37263672 30.9876709 62.45263672 C10.8576709 62.45263672 -9.2723291 62.45263672 -30.0123291 62.45263672 C-30.1154541 57.44076172 -30.2185791 52.42888672 -30.3248291 47.26513672 C-30.37034912 45.69223877 -30.41586914 44.11934082 -30.46276855 42.4987793 C-30.47525635 41.25249756 -30.48774414 40.00621582 -30.50061035 38.72216797 C-30.52679443 37.44962158 -30.55297852 36.1770752 -30.57995605 34.8659668 C-29.8629054 30.55410219 -28.31626914 29.20853129 -25.0123291 26.45263672 C-21.2967351 23.01571226 -18.77239788 19.6110541 -16.2076416 15.30419922 C-14.74925911 13.04513614 -12.90788024 11.34818785 -11.0123291 9.45263672 C-10.31021016 7.80059216 -9.64261497 6.13339903 -9.0123291 4.45263672 C-6.91959013 0.13972742 -4.59926129 -0.00296106 0 0 Z " fill="#E3E3E3" transform="translate(871.0123291015625,618.54736328125)"/>
<path d="M0 0 C10.89 0 21.78 0 33 0 C33 5.61 33 11.22 33 17 C34.93746094 16.98839844 36.87492188 16.97679687 38.87109375 16.96484375 C41.39322821 16.95546779 43.9153637 16.94636738 46.4375 16.9375 C47.71689453 16.92912109 48.99628906 16.92074219 50.31445312 16.91210938 C52.13686523 16.90727539 52.13686523 16.90727539 53.99609375 16.90234375 C55.12200928 16.89710693 56.2479248 16.89187012 57.40795898 16.88647461 C60 17 60 17 61 18 C61.09785341 19.34544327 61.12797985 20.69592563 61.12939453 22.04492188 C61.13254669 22.90251099 61.13569885 23.7601001 61.13894653 24.64367676 C61.1369223 25.57595093 61.13489807 26.5082251 61.1328125 27.46875 C61.13376923 28.41939331 61.13472595 29.37003662 61.13571167 30.3494873 C61.13639357 32.36368882 61.13453862 34.37789252 61.13037109 36.39208984 C61.12502298 39.48670355 61.13031577 42.5811721 61.13671875 45.67578125 C61.13605797 47.62760449 61.13477681 49.57942764 61.1328125 51.53125 C61.13483673 52.46352417 61.13686096 53.39579834 61.13894653 54.35632324 C61.13421829 55.64270691 61.13421829 55.64270691 61.12939453 56.95507812 C61.12859894 57.71373169 61.12780334 58.47238525 61.12698364 59.25402832 C61 61 61 61 60 62 C58.16427369 62.09905152 56.32472425 62.12799207 54.48632812 62.12939453 C53.30840698 62.13254669 52.13048584 62.13569885 50.91687012 62.13894653 C49.63461548 62.1369223 48.35236084 62.13489807 47.03125 62.1328125 C45.72546997 62.13376923 44.41968994 62.13472595 43.07434082 62.13571167 C40.30687278 62.13718833 37.53943696 62.13503511 34.77197266 62.13037109 C31.21737351 62.12467381 27.66284986 62.12795298 24.10825348 62.13394356 C20.72841286 62.13841747 17.34859277 62.13528886 13.96875 62.1328125 C12.68649536 62.13483673 11.40424072 62.13686096 10.08312988 62.13894653 C8.31624817 62.13421829 8.31624817 62.13421829 6.51367188 62.12939453 C5.47078003 62.12859894 4.42788818 62.12780334 3.35339355 62.12698364 C1 62 1 62 0 61 C-0.09391296 59.09756238 -0.11743658 57.19161541 -0.11352539 55.28686523 C-0.11344986 54.0656749 -0.11337433 52.84448456 -0.11329651 51.58628845 C-0.10818911 50.24372314 -0.10297311 48.90115825 -0.09765625 47.55859375 C-0.09579199 46.19238842 -0.09436813 44.82618243 -0.09336853 43.4599762 C-0.08954394 39.85798305 -0.07971417 36.25603 -0.06866455 32.65405273 C-0.05844916 28.98096265 -0.05381594 25.30786592 -0.04882812 21.63476562 C-0.03862203 14.42314163 -0.01905038 7.21162785 0 0 Z " fill="#E3E4E4" transform="translate(547,371)"/>
<path d="M0 0 C20.13 0 40.26 0 61 0 C61 20.46 61 40.92 61 62 C45.82 62 30.64 62 15 62 C14.67 49.46 14.34 36.92 14 24 C9.05 25.485 9.05 25.485 4 27 C2.68 27 1.36 27 0 27 C0 18.09 0 9.18 0 0 Z " fill="#E3E4E4" transform="translate(902,371)"/>
<path d="M0 0 C1.1397221 17.53418615 1.1397221 17.53418615 -1.2421875 22.6875 C-3.05045272 24.62076051 -4.99220341 26.27587375 -7 28 C-12.64247352 34.86219978 -17.36346264 42.00354814 -21.58984375 49.796875 C-22.05519531 50.52390625 -22.52054688 51.2509375 -23 52 C-23.66 52 -24.32 52 -25 52 C-25.185625 53.36125 -25.185625 53.36125 -25.375 54.75 C-25.9275659 57.62334269 -26.64482241 59.46592809 -28 62 C-32.53897705 62.02465392 -37.07791543 62.04283789 -41.61694336 62.05493164 C-43.16219766 62.0599714 -44.70744716 62.0668032 -46.25268555 62.07543945 C-48.46925029 62.08752076 -50.68575218 62.09323173 -52.90234375 62.09765625 C-53.94454323 62.10539818 -53.94454323 62.10539818 -55.00779724 62.11329651 C-56.6722933 62.11349277 -58.33665499 62.06189129 -60 62 C-61 61 -61 61 -61.11352539 57.39819336 C-61.11336625 55.79540144 -61.10767063 54.1926044 -61.09765625 52.58984375 C-61.0962413 51.74780899 -61.09482635 50.90577423 -61.09336853 50.03822327 C-61.08775263 47.33794665 -61.07519748 44.63775172 -61.0625 41.9375 C-61.05748705 40.11132932 -61.05292379 38.28515734 -61.04882812 36.45898438 C-61.03777804 31.97262458 -61.02050279 27.48632616 -61 23 C-58.02873292 25.71077243 -57.11756266 28.13151386 -56 32 C-53.6147267 32.12815365 -53.6147267 32.12815365 -51 31 C-49.32801232 28.47332213 -48.14194429 25.80063432 -47 23 C-46.01 23 -45.02 23 -44 23 C-43.731875 21.865625 -43.46375 20.73125 -43.1875 19.5625 C-42.795625 18.386875 -42.40375 17.21125 -42 16 C-41.01 15.67 -40.02 15.34 -39 15 C-37.95283849 13.23111184 -37.95283849 13.23111184 -37 11 C-29.21312673 -4.19182905 -14.90603949 -1.12163947 0 0 Z " fill="#E2E2E2" transform="translate(608,619)"/>
<path d="M0 0 C1.16781006 0.00523682 2.33562012 0.01047363 3.53881836 0.01586914 C4.79887695 0.0190918 6.05893555 0.02231445 7.35717773 0.02563477 C8.6976732 0.03399136 10.03816799 0.04245632 11.37866211 0.05102539 C12.72306153 0.05603879 14.06746271 0.06060197 15.41186523 0.06469727 C18.71334151 0.07653051 22.01473014 0.09301568 25.31616211 0.11352539 C24.85419419 1.54024103 24.38864914 2.96579868 23.92163086 4.39086914 C23.662771 5.18485107 23.40391113 5.97883301 23.13720703 6.796875 C22.10636985 9.70547269 20.7777927 12.39906858 19.31616211 15.11352539 C18.65616211 15.11352539 17.99616211 15.11352539 17.31616211 15.11352539 C16.98616211 16.43352539 16.65616211 17.75352539 16.31616211 19.11352539 C15.65616211 19.11352539 14.99616211 19.11352539 14.31616211 19.11352539 C14.02741211 19.83540039 13.73866211 20.55727539 13.44116211 21.30102539 C12.39949544 23.90519206 11.35782878 26.50935872 10.31616211 29.11352539 C9.65616211 29.11352539 8.99616211 29.11352539 8.31616211 29.11352539 C8.08928711 29.85602539 7.86241211 30.59852539 7.62866211 31.36352539 C6.03979192 34.69258673 4.19515241 35.82341947 1.31616211 38.11352539 C-0.28755529 40.09601022 -1.77789448 42.13245372 -3.25415039 44.21118164 C-4.62499199 46.03522498 -5.96020871 47.61816062 -7.68383789 49.11352539 C-8.34383789 49.11352539 -9.00383789 49.11352539 -9.68383789 49.11352539 C-10.34383789 50.43352539 -11.00383789 51.75352539 -11.68383789 53.11352539 C-12.67383789 53.11352539 -13.66383789 53.11352539 -14.68383789 53.11352539 C-14.68383789 53.77352539 -14.68383789 54.43352539 -14.68383789 55.11352539 C-16.14477539 56.29711914 -16.14477539 56.29711914 -18.05883789 57.55102539 C-20.76974658 59.33040784 -21.8117981 60.3054657 -23.68383789 63.11352539 C-25.62915039 63.40649414 -25.62915039 63.40649414 -27.80883789 63.30102539 C-29.08758789 63.23915039 -30.36633789 63.17727539 -31.68383789 63.11352539 C-31.73540039 64.03907227 -31.78696289 64.96461914 -31.84008789 65.91821289 C-32.68383789 69.11352539 -32.68383789 69.11352539 -35.09008789 70.87133789 C-36.11102539 71.32250977 -37.13196289 71.77368164 -38.18383789 72.23852539 C-39.27567383 72.73352539 -40.36750977 73.22852539 -41.49243164 73.73852539 C-42.5455957 74.19227539 -43.59875977 74.64602539 -44.68383789 75.11352539 C-45.47918945 75.48477539 -46.27454102 75.85602539 -47.09399414 76.23852539 C-49.27156178 77.25024466 -51.46681261 78.19166952 -53.68383789 79.11352539 C-54.55782227 79.48735352 -55.43180664 79.86118164 -56.33227539 80.24633789 C-62.51768467 82.72396682 -68.00369805 83.95197916 -74.68383789 83.11352539 C-75.68383789 82.11352539 -75.68383789 82.11352539 -76.05883789 78.48852539 C-76.02215232 73.4075735 -73.97173698 70.87112435 -70.68383789 67.11352539 C-70.02383789 67.11352539 -69.36383789 67.11352539 -68.68383789 67.11352539 C-68.02383789 65.79352539 -67.36383789 64.47352539 -66.68383789 63.11352539 C-55.46383789 63.11352539 -44.24383789 63.11352539 -32.68383789 63.11352539 C-32.88123667 53.46498589 -32.88123667 53.46498589 -33.13427734 43.81787109 C-33.15300903 42.00935669 -33.15300903 42.00935669 -33.17211914 40.16430664 C-33.19830322 38.93365479 -33.2244873 37.70300293 -33.25146484 36.43505859 C-32.52686521 32.19498205 -30.92126838 30.84168699 -27.68383789 28.11352539 C-22.29823359 22.80584784 -17.00297874 17.51829378 -12.15649414 11.70727539 C-10.68383789 10.11352539 -10.68383789 10.11352539 -7.68383789 8.11352539 C-7.35383789 7.12352539 -7.02383789 6.13352539 -6.68383789 5.11352539 C-6.02383789 5.11352539 -5.36383789 5.11352539 -4.68383789 5.11352539 C-4.53946289 4.47415039 -4.39508789 3.83477539 -4.24633789 3.17602539 C-3.41004606 0.109622 -3.27416952 0.13849621 0 0 Z " fill="#E3E3E3" transform="translate(812.683837890625,555.886474609375)"/>
<path d="M0 0 C11.88 0 23.76 0 36 0 C36 20.46 36 40.92 36 62 C24.12 62 12.24 62 0 62 C0 41.54 0 21.08 0 0 Z " fill="#E3E3E3" transform="translate(1084,866)"/>
<path d="M0 0 C11.88 0 23.76 0 36 0 C36 20.46 36 40.92 36 62 C24.12 62 12.24 62 0 62 C0 41.54 0 21.08 0 0 Z " fill="#E3E3E3" transform="translate(1084,742)"/>
<path d="M0 0 C11.88 0 23.76 0 36 0 C36 20.46 36 40.92 36 62 C24.12 62 12.24 62 0 62 C0 41.54 0 21.08 0 0 Z " fill="#E3E3E3" transform="translate(1084,619)"/>
<path d="M0 0 C11.88 0 23.76 0 36 0 C36 20.46 36 40.92 36 62 C24.12 62 12.24 62 0 62 C0 41.54 0 21.08 0 0 Z " fill="#E3E3E3" transform="translate(1084,433)"/>
<path d="M0 0 C11.88 0 23.76 0 36 0 C36 20.46 36 40.92 36 62 C24.12 62 12.24 62 0 62 C0 41.54 0 21.08 0 0 Z " fill="#FDFEFE" transform="translate(1084,247)"/>
<path d="M0 0 C11.88 0 23.76 0 36 0 C36 20.46 36 40.92 36 62 C24.12 62 12.24 62 0 62 C0 41.54 0 21.08 0 0 Z " fill="#E2E2E2" transform="translate(1084,0)"/>
<path d="M0 0 C11.88 0 23.76 0 36 0 C36 20.13 36 40.26 36 61 C24.12 61 12.24 61 0 61 C0 40.87 0 20.74 0 0 Z " fill="#FDFDFD" transform="translate(1084,804)"/>
<path d="M0 0 C11.88 0 23.76 0 36 0 C36 20.13 36 40.26 36 61 C24.12 61 12.24 61 0 61 C0 40.87 0 20.74 0 0 Z " fill="#FDFEFE" transform="translate(1084,681)"/>
<path d="M0 0 C11.88 0 23.76 0 36 0 C36 20.13 36 40.26 36 61 C24.12 61 12.24 61 0 61 C0 40.87 0 20.74 0 0 Z " fill="#FDFDFE" transform="translate(1084,371)"/>
<path d="M0 0 C11.88 0 23.76 0 36 0 C36 20.13 36 40.26 36 61 C24.12 61 12.24 61 0 61 C0 40.87 0 20.74 0 0 Z " fill="#E3E3E3" transform="translate(1084,310)"/>
<path d="M0 0 C11.88 0 23.76 0 36 0 C36 19.8 36 39.6 36 60 C24.12 60 12.24 60 0 60 C0 40.2 0 20.4 0 0 Z " fill="#FDFEFE" transform="translate(1084,63)"/>
<path d="M0 0 C10.94230769 1.82371795 10.94230769 1.82371795 13.2890625 4.43359375 C15.67259239 6.61577523 18.11931052 7.23075274 21.1875 8.1875 C22.27417969 8.53167969 23.36085938 8.87585938 24.48046875 9.23046875 C25.31191406 9.48441406 26.14335937 9.73835937 27 10 C27 10.66 27 11.32 27 12 C27.62648438 12.13277344 28.25296875 12.26554688 28.8984375 12.40234375 C29.71570313 12.57894531 30.53296875 12.75554688 31.375 12.9375 C32.18710937 13.11152344 32.99921875 13.28554688 33.8359375 13.46484375 C36 14 36 14 38 15 C38 15.66 38 16.32 38 17 C39.65 17 41.3 17 43 17 C43.495 18.485 43.495 18.485 44 20 C46.76175676 20.95888291 46.76175676 20.95888291 50 21.5625 C52.0132123 21.98271059 54.01834723 22.44986093 56 23 C56.495 23.99 56.495 23.99 57 25 C58.32 25.66 59.64 26.32 61 27 C61.495 46.8 61.495 46.8 62 67 C61.01 66.505 61.01 66.505 60 66 C60 63.36 60 60.72 60 58 C55.38 58 50.76 58 46 58 C46 57.34 46 56.68 46 56 C44.9275 55.71125 43.855 55.4225 42.75 55.125 C36.02672187 53.10801656 36.02672187 53.10801656 33.66796875 50.5625 C31.74554749 48.76163699 29.98797098 47.94777206 27.5625 46.9375 C24.65378933 45.71200261 21.80958479 44.4399922 19 43 C19 42.34 19 41.68 19 41 C17.35 41 15.7 41 14 41 C14 40.34 14 39.68 14 39 C12.68 39 11.36 39 10 39 C10 38.34 10 37.68 10 37 C8.63875 36.814375 8.63875 36.814375 7.25 36.625 C4 36 4 36 0 34 C0 22.78 0 11.56 0 0 Z " fill="#E3E3E3" transform="translate(425,561)"/>
<path d="M0 0 C3.625 -0.1875 3.625 -0.1875 7 0 C7.19863726 4.4471826 7.3433135 8.89198184 7.43945312 13.34228516 C7.47954492 14.85381054 7.53403905 16.3650283 7.60351562 17.87548828 C8.1659432 30.42258579 8.1659432 30.42258579 5.25390625 34.36230469 C2.59505878 36.40692474 0.41944767 38 -3 38 C-3 38.66 -3 39.32 -3 40 C-8.47619048 45 -8.47619048 45 -11 45 C-11 45.66 -11 46.32 -11 47 C-12.65 47.66 -14.3 48.32 -16 49 C-16 49.66 -16 50.32 -16 51 C-17.70129749 52.35517144 -19.46285924 53.63522958 -21.25 54.875 C-24.13169454 56.87998853 -26.73594218 58.72549385 -29.171875 61.2578125 C-31 63 -31 63 -34 63 C-34.26490234 63.84304688 -34.26490234 63.84304688 -34.53515625 64.703125 C-36.75020583 68.17632274 -39.92180298 69.71929636 -43.4375 71.75 C-44.11876953 72.16121094 -44.80003906 72.57242188 -45.50195312 72.99609375 C-50.59661804 76 -50.59661804 76 -54 76 C-54.24865482 71.5712664 -54.42926743 67.14629534 -54.54931641 62.71264648 C-54.59937919 61.20769468 -54.66746223 59.70322393 -54.75439453 58.19995117 C-55.45774284 45.71758733 -55.45774284 45.71758733 -51.90307617 41.52929688 C-49.3402036 39.73312401 -46.81257064 38.36284543 -44 37 C-42.3378439 35.89925959 -40.68918602 34.77751246 -39.0625 33.625 C-36.61691548 31.96502067 -34.83250076 30.94416692 -32 30 C-32 29.34 -32 28.68 -32 28 C-30.13671875 26.30859375 -30.13671875 26.30859375 -27.6875 24.4375 C-26.88699219 23.81746094 -26.08648438 23.19742188 -25.26171875 22.55859375 C-23 21 -23 21 -20 20 C-20 19.34 -20 18.68 -20 18 C-15.52941176 14 -15.52941176 14 -13 14 C-12.7525 13.4225 -12.505 12.845 -12.25 12.25 C-10.26947605 8.68505688 -7.86761054 6.51643484 -4.375 4.4375 C-1.74256396 3.07382261 -1.74256396 3.07382261 0 0 Z " fill="#E3E3E4" transform="translate(774,497)"/>
<path d="M0 0 C0 19.47 0 38.94 0 59 C-5 56 -5 56 -6 53 C-6.70125 52.731875 -7.4025 52.46375 -8.125 52.1875 C-12.03314036 50.57326811 -15.10101161 48.07443149 -18 45 C-18 44.34 -18 43.68 -18 43 C-18.804375 42.731875 -19.60875 42.46375 -20.4375 42.1875 C-21.283125 41.795625 -22.12875 41.40375 -23 41 C-23.33 40.01 -23.66 39.02 -24 38 C-25.3153341 37.29848848 -26.65117592 36.63474075 -28 36 C-29 35 -30 34 -31 33 C-32.485 32.505 -32.485 32.505 -34 32 C-34 31.34 -34 30.68 -34 30 C-34.804375 29.731875 -35.60875 29.46375 -36.4375 29.1875 C-37.283125 28.795625 -38.12875 28.40375 -39 28 C-39.33 27.01 -39.66 26.02 -40 25 C-41.32407669 24.31513275 -42.65909241 23.65129797 -44 23 C-45.33333333 21.66666667 -46.66666667 20.33333333 -48 19 C-48.99 18.67 -49.98 18.34 -51 18 C-51 17.34 -51 16.68 -51 16 C-51.99 16 -52.98 16 -54 16 C-54 15.01 -54 14.02 -54 13 C-55.32 12.67 -56.64 12.34 -58 12 C-58 11.34 -58 10.68 -58 10 C-58.66 10 -59.32 10 -60 10 C-60 7.03 -60 4.06 -60 1 C-52.32462765 0.86951694 -44.64925377 0.73912434 -36.97387791 0.60884857 C-33.4102375 0.54835928 -29.84659764 0.48783834 -26.28295898 0.42724609 C-22.18994298 0.35765426 -18.09692469 0.28819823 -14.00390625 0.21875 C-12.71851456 0.19687622 -11.43312286 0.17500244 -10.10877991 0.15246582 C-8.92763107 0.13244507 -7.74648224 0.11242432 -6.52954102 0.09179688 C-5.48363297 0.07403198 -4.43772491 0.05626709 -3.36012268 0.03796387 C-1 0 -1 0 0 0 Z " fill="#E3E3E3" transform="translate(841,247)"/>
<path d="M0 0 C1.32 0 2.64 0 4 0 C4.0988803 4.6447121 4.1714715 9.28881173 4.21972656 13.93432617 C4.23984186 15.51451285 4.26713804 17.09462509 4.30175781 18.67456055 C4.35028343 20.94598748 4.37296809 23.21643058 4.390625 25.48828125 C4.41127014 26.19463211 4.43191528 26.90098297 4.45318604 27.6287384 C4.45542853 32.53094438 4.45542853 32.53094438 2.19677734 34.85717773 C-1.70669032 36.8878659 -5.64409102 38.82325896 -9.62890625 40.6875 C-13.74757826 42.67964078 -17.12337766 44.87716511 -20.703125 47.73828125 C-26.66777722 52.01709637 -32.0108786 51.81090876 -39.125 51.4375 C-43.04375 51.293125 -46.9625 51.14875 -51 51 C-51 42.75 -51 34.5 -51 26 C-44.3125 22.6875 -44.3125 22.6875 -42.2355957 21.6628418 C-39.48938792 20.29590603 -36.83298204 18.89564322 -34.23046875 17.26953125 C-32 16 -32 16 -29 16 C-29 15.34 -29 14.68 -29 14 C-27.68 13.67 -26.36 13.34 -25 13 C-25 12.34 -25 11.68 -25 11 C-19.77228537 7.95842058 -16.07328688 6.49389276 -10 7 C-10 6.34 -10 5.68 -10 5 C-9.36191406 4.89042969 -8.72382812 4.78085937 -8.06640625 4.66796875 C-7.24011719 4.50941406 -6.41382813 4.35085938 -5.5625 4.1875 C-4.73878906 4.03667969 -3.91507813 3.88585937 -3.06640625 3.73046875 C-2.38449219 3.48941406 -1.70257812 3.24835937 -1 3 C-0.67 2.01 -0.34 1.02 0 0 Z " fill="#E2E2E2" transform="translate(659,568)"/>
<path d="M0 0 C12.21 0 24.42 0 37 0 C36.30109628 4.89232602 35.86428612 7.82397464 34.125 12.125 C32.15328573 17.30697829 30.90308117 22.48383822 29.7265625 27.89453125 C28.75543902 32.04530096 27.42868832 35.98606616 26 40 C25.34 40 24.68 40 24 40 C23.91435791 40.63091553 23.82871582 41.26183105 23.74047852 41.91186523 C23.35216286 44.75435681 22.95741919 47.59591869 22.5625 50.4375 C22.42779297 51.43072266 22.29308594 52.42394531 22.15429688 53.44726562 C22.02216797 54.39150391 21.89003906 55.33574219 21.75390625 56.30859375 C21.63345947 57.18314209 21.5130127 58.05769043 21.38891602 58.95874023 C21 61 21 61 20 62 C13.4 62 6.8 62 0 62 C0 41.54 0 21.08 0 0 Z " fill="#E2E2E3" transform="translate(841,433)"/>
<path d="M0 0 C0.33 0 0.66 0 1 0 C1 40.59 1 81.18 1 123 C19.93375 122.814375 19.93375 122.814375 39.25 122.625 C43.23352539 122.59100098 47.21705078 122.55700195 51.32128906 122.52197266 C54.89646909 122.48205746 54.89646909 122.48205746 58.47161865 122.43954468 C60.06224038 122.42187581 61.65290781 122.40806336 63.24359131 122.39730835 C65.65510318 122.38025119 68.06618614 122.35090531 70.47753906 122.31884766 C71.18451054 122.31667551 71.89148201 122.31450336 72.61987686 122.3122654 C76.23832175 122.25038116 78.91865086 121.9740181 82 120 C81.04296875 121.984375 81.04296875 121.984375 79 124 C76.09705206 124.52039056 73.24999543 124.37530743 70.3125 124.25 C69.51521484 124.23195313 68.71792969 124.21390625 67.89648438 124.1953125 C65.93047551 124.14822247 63.96508506 124.07647899 62 124 C62 126.64 62 129.28 62 132 C61.67 132 61.34 132 61 132 C61 129.36 61 126.72 61 124 C41.2 124 21.4 124 1 124 C1 164.26 1 204.52 1 246 C1.66 246 2.32 246 3 246 C4.15446804 248.30893608 4.20720131 249.84131699 4.34130859 252.41455078 C4.39161224 253.32955353 4.44191589 254.24455627 4.4937439 255.18728638 C4.54479279 256.179935 4.59584167 257.17258362 4.6484375 258.1953125 C4.76774627 260.29429834 4.88755402 262.39325586 5.0078125 264.4921875 C5.19300602 267.80313416 5.37443475 271.11414457 5.546875 274.42578125 C5.71522138 277.62053644 5.89946654 280.81407065 6.0859375 284.0078125 C6.13293793 284.98831573 6.17993835 285.96881897 6.22836304 286.97903442 C6.58889168 292.92701938 7.73373472 297.49751704 10 303 C10.1875 306.5 10.1875 306.5 10 309 C7.03 309 4.06 309 1 309 C1 370.38 1 431.76 1 495 C-19.13 495 -39.26 495 -60 495 C-60 494.67 -60 494.34 -60 494 C-40.2 494 -20.4 494 0 494 C0 432.95 0 371.9 0 309 C-20.13 309 -40.26 309 -61 309 C-61 288.54 -61 268.08 -61 247 C-100.93 247 -140.86 247 -182 247 C-182 246.67 -182 246.34 -182 246 C-162.2 246 -142.4 246 -122 246 C-122 225.87 -122 205.74 -122 185 C-121.67 185 -121.34 185 -121 185 C-121 205.13 -121 225.26 -121 246 C-101.2 246 -81.4 246 -61 246 C-61 230.16 -61 214.32 -61 198 C-60.67 198 -60.34 198 -60 198 C-60 234.3 -60 270.6 -60 308 C-40.2 308 -20.4 308 0 308 C0 247.28 0 186.56 0 124 C-19.8 124 -39.6 124 -60 124 C-60 143.47 -60 162.94 -60 183 C-60.33 183 -60.66 183 -61 183 C-61 163.53 -61 144.06 -61 124 C-100.93 124 -140.86 124 -182 124 C-182 123.67 -182 123.34 -182 123 C-121.94 123 -61.88 123 0 123 C0 82.41 0 41.82 0 0 Z " fill="#EFEFEF" transform="translate(182,186)"/>
<path d="M0 0 C20.13 0 40.26 0 61 0 C61 20.46 61 40.92 61 62 C54.73 62 48.46 62 42 62 C41.67 44.51 41.34 27.02 41 9 C20.705 8.505 20.705 8.505 0 8 C0 5.36 0 2.72 0 0 Z " fill="#E2E3E3" transform="translate(486,433)"/>
<path d="M0 0 C19.47 0 38.94 0 59 0 C57.81402252 3.55793245 56.72223632 4.19995289 53.75 6.375 C51.03756978 8.40932267 48.6559662 10.3440338 46.25 12.75 C43.97184957 15.02815043 41.74797581 16.35121451 39 18 C38.2575 18.763125 37.515 19.52625 36.75 20.3125 C33.81948631 23.1764111 30.78375168 25.17105243 27.3515625 27.375 C24.19705084 29.55486188 21.4284137 32.06681388 18.62890625 34.6796875 C17 36 17 36 15 36 C15 36.66 15 37.32 15 38 C13.35 38.66 11.7 39.32 10 40 C10 40.66 10 41.32 10 42 C9.34 42 8.68 42 8 42 C8 42.66 8 43.32 8 44 C4.04 46.475 4.04 46.475 0 49 C0 32.83 0 16.66 0 0 Z " fill="#E2E2E3" transform="translate(426,124)"/>
<path d="M0 0 C17.16 0 34.32 0 52 0 C52 15.18 52 30.36 52 46 C48 44 48 44 46.25 41.6875 C43.69890822 38.6403626 41.12619311 37.0607445 37.70703125 35.11328125 C36 34 36 34 35 32 C33.34928604 30.97388051 31.68029994 29.97691857 30 29 C27.6875 27.4375 27.6875 27.4375 26 26 C26 25.34 26 24.68 26 24 C25.34 24 24.68 24 24 24 C24 23.34 24 22.68 24 22 C23.34 22 22.68 22 22 22 C22 21.34 22 20.68 22 20 C21.1028125 19.566875 21.1028125 19.566875 20.1875 19.125 C18 18 18 18 15 16 C15 15.34 15 14.68 15 14 C14.484375 13.7525 13.96875 13.505 13.4375 13.25 C3.20763957 8.00391773 3.20763957 8.00391773 0 3 C0 2.01 0 1.02 0 0 Z " fill="#E2E2E3" transform="translate(850,310)"/>
<path d="M0 0 C2.64 0 5.28 0 8 0 C8 20.13 8 40.26 8 61 C-12.13 61 -32.26 61 -53 61 C-53 56.71 -53 52.42 -53 48 C-36.83 47.67 -20.66 47.34 -4 47 C-2.38275552 31.5943965 -2.38275552 31.5943965 -1.4375 16.1875 C-1.23169061 10.71822506 -0.87342567 5.4065771 0 0 Z " fill="#E2E2E2" transform="translate(539,805)"/>
<path d="M0 0 C6.27 0 12.54 0 19 0 C19 20.46 19 40.92 19 62 C12.73 62 6.46 62 0 62 C0 41.54 0 21.08 0 0 Z " fill="#E3E2E3" transform="translate(547,742)"/>
<path d="M0 0 C0.12353289 5.35676631 0.21430573 10.71270526 0.2746582 16.07055664 C0.29981397 17.89329467 0.33394285 19.71593172 0.37719727 21.53833008 C0.43780546 24.15731693 0.46619761 26.77497153 0.48828125 29.39453125 C0.51408768 30.21025101 0.5398941 31.02597076 0.56648254 31.8664093 C0.56820828 35.34188275 0.5398282 37.42157269 -1.88476562 40.01953125 C-6.40201214 41.44126025 -10.62412989 41.36902032 -15.33203125 41.29296875 C-16.81965218 41.28660149 -16.81965218 41.28660149 -18.33732605 41.28010559 C-21.49599685 41.26335123 -24.65402297 41.22570448 -27.8125 41.1875 C-29.95767306 41.17244899 -32.10285615 41.15876132 -34.24804688 41.14648438 C-39.49891681 41.11345841 -44.74941234 41.06329122 -50 41 C-50 40.01 -50 39.02 -50 38 C-48.63891602 36.7890625 -48.63891602 36.7890625 -46.75390625 35.625 C-46.08166016 35.19703125 -45.40941406 34.7690625 -44.71679688 34.328125 C-44.00587891 33.88984375 -43.29496094 33.4515625 -42.5625 33 C-41.16321524 32.13262202 -39.76843803 31.2579178 -38.37890625 30.375 C-37.44413452 29.79878906 -37.44413452 29.79878906 -36.49047852 29.2109375 C-34.69215517 27.97130136 -34.69215517 27.97130136 -34 25 C-32.328125 23.53515625 -32.328125 23.53515625 -30.25 22.0625 C-29.52425781 21.53785156 -28.79851562 21.01320312 -28.05078125 20.47265625 C-27.03564453 19.74369141 -27.03564453 19.74369141 -26 19 C-23.71669352 17.21790714 -21.47412988 15.42462676 -19.31640625 13.4921875 C-14.47338661 9.18033776 -14.47338661 9.18033776 -11.375 8 C-7.84811565 6.51499606 -6.35520549 3.99174752 -4 1 C-2 0 -2 0 0 0 Z " fill="#E2E2E3" transform="translate(486,206)"/>
<path d="M0 0 C7.59 0 15.18 0 23 0 C23 14.52 23 29.04 23 44 C19.225625 44.020625 15.45125 44.04125 11.5625 44.0625 C10.37084229 44.071604 9.17918457 44.08070801 7.95141602 44.09008789 C6.55427368 44.09383423 6.55427368 44.09383423 5.12890625 44.09765625 C4.17056885 44.10289307 3.21223145 44.10812988 2.22485352 44.11352539 C0 44 0 44 -1 43 C-1.10116109 39.99360697 -1.13968674 37.01066703 -1.1328125 34.00390625 C-1.13376923 33.1000267 -1.13472595 32.19614716 -1.13571167 31.26487732 C-1.1363936 29.34902884 -1.13453841 27.43317806 -1.13037109 25.51733398 C-1.12502919 22.57856058 -1.13031245 19.63994045 -1.13671875 16.70117188 C-1.13605785 14.84374966 -1.13477644 12.98632754 -1.1328125 11.12890625 C-1.13483673 10.24554092 -1.13686096 9.3621756 -1.13894653 8.45204163 C-1.11495408 2.22990815 -1.11495408 2.22990815 0 0 Z " fill="#E4E4E4" transform="translate(463,389)"/>
<path d="M0 0 C0 15.18 0 30.36 0 46 C-6.27 46 -12.54 46 -19 46 C-19.0229799 40.25247257 -19.04288634 34.50510516 -19.05493164 28.75756836 C-19.05995422 26.80313577 -19.06677349 24.84870694 -19.07543945 22.89428711 C-19.08759589 20.08185907 -19.09324913 17.26948081 -19.09765625 14.45703125 C-19.10281754 13.58601273 -19.10797882 12.7149942 -19.11329651 11.81758118 C-19.11367154 7.74374461 -19.02821533 3.97410561 -18 0 C-15 -1 -15 -1 0 0 Z " fill="#E2E3E3" transform="translate(547,325)"/>
<path d="M0 0 C14.19 0 28.38 0 43 0 C43 11.55 43 23.1 43 35 C34.23404255 30.61702128 34.23404255 30.61702128 32 26 C30.68765286 25.29291641 29.35024144 24.6317201 28 24 C22.99737867 21.16551276 18.98226251 18.19185527 15 14 C12.21189222 11.56040569 9.55968531 9.33314602 6.375 7.4375 C3.81778157 5.8897099 1.96051915 4.25096643 0 2 C0 1.34 0 0.68 0 0 Z " fill="#E2E2E2" transform="translate(619,124)"/>
<path d="M0 0 C6.27 0 12.54 0 19 0 C19 20.13 19 40.26 19 61 C16.03 61 13.06 61 10 61 C9.96036133 60.29617188 9.92072266 59.59234375 9.87988281 58.8671875 C8.89848027 42.25383177 6.97764084 27.29730012 1.61328125 11.50390625 C0.69210275 7.74291632 0.42760842 3.84847581 0 0 Z " fill="#E2E2E2" transform="translate(528,681)"/>
<path d="M0 0 C4.40667288 1.10166822 4.93373549 1.93373549 8 5 C10.28167048 6.45376413 12.61497119 7.71575372 15 9 C15 9.66 15 10.32 15 11 C15.86625 11.226875 16.7325 11.45375 17.625 11.6875 C21.66573255 13.25889599 23.87197109 15.02092484 27 18 C27 18.66 27 19.32 27 20 C18.42 20 9.84 20 1 20 C1 40.13 1 60.26 1 81 C20.8 81 40.6 81 61 81 C61 97.17 61 113.34 61 130 C60.67 130 60.34 130 60 130 C60 114.16 60 98.32 60 82 C40.53 82 21.06 82 1 82 C1 122.59 1 163.18 1 205 C0.67 205 0.34 205 0 205 C0 184.54 0 164.08 0 143 C-19.47 143 -38.94 143 -59 143 C-59 163.46 -59 183.92 -59 205 C-59.33 205 -59.66 205 -60 205 C-60 184.21 -60 163.42 -60 142 C-40.2 142 -20.4 142 0 142 C0 122.2 0 102.4 0 82 C-6.6 82 -13.2 82 -20 82 C-20 81.67 -20 81.34 -20 81 C-13.4 81 -6.8 81 0 81 C0 54.27 0 27.54 0 0 Z " fill="#EEEEEF" transform="translate(364,723)"/>
<path d="M0 0 C5.83480816 -0.17383694 11.66808988 -0.30043861 17.50488281 -0.38452148 C19.48757198 -0.41959187 21.47008182 -0.46726351 23.45214844 -0.52807617 C26.31229987 -0.61359326 29.1700476 -0.6528209 32.03125 -0.68359375 C32.90865845 -0.71972275 33.78606689 -0.75585175 34.69006348 -0.79307556 C40.93323624 -0.79700392 44.05763927 0.96214148 48.60046387 5.19981384 C50 7 50 7 50 10 C50.66 10 51.32 10 52 10 C52.02687279 11.81242052 52.04633715 13.62495233 52.0625 15.4375 C52.07410156 16.44683594 52.08570313 17.45617187 52.09765625 18.49609375 C52 21 52 21 51 22 C49.14712498 22.07226502 47.29166122 22.0838122 45.4375 22.0625 C44.42558594 22.05347656 43.41367187 22.04445313 42.37109375 22.03515625 C41.58863281 22.02355469 40.80617188 22.01195312 40 22 C40 21.34 40 20.68 40 20 C38.845 19.979375 37.69 19.95875 36.5 19.9375 C31.50849026 19.39615604 27.25243426 17.6680891 22.6875 15.6875 C21.99398438 15.39157959 21.30046875 15.09565918 20.5859375 14.79077148 C16.62170342 13.00927163 14.00316428 11.20424007 11 8 C8.72214907 6.62784748 6.39470204 5.44748193 4.0234375 4.24609375 C2 3 2 3 0 0 Z " fill="#E3E2E3" transform="translate(312,619)"/>
<path d="M0 0 C20.36410074 -0.12501835 40.65092899 0.18661815 61 1 C61 4.63 61 8.26 61 12 C40.87 12 20.74 12 0 12 C0 8.04 0 4.08 0 0 Z " fill="#E3E3E3" transform="translate(841,359)"/>
<path d="M0 0 C1.32 0 2.64 0 4 0 C4.66 0.99 5.32 1.98 6 3 C8.23768189 4.26228209 10.43403292 5.40422219 12.75 6.5 C13.3584375 6.79519531 13.966875 7.09039063 14.59375 7.39453125 C16.39364097 8.26755529 18.19679891 9.13383354 20 10 C21.05445313 10.53882813 22.10890625 11.07765625 23.1953125 11.6328125 C25.51577271 12.76395605 27.66460449 13.63205704 30.125 14.375 C35.89804557 16.22040089 41.43234629 18.61655433 47 21 C46.505 22.485 46.505 22.485 46 24 C31.15 24 16.3 24 1 24 C1 26.31 1 28.62 1 31 C-0.41791408 30.54554036 -1.83428046 30.08625056 -3.25 29.625 C-4.43335938 29.24214844 -4.43335938 29.24214844 -5.640625 28.8515625 C-7.86627958 28.04826333 -9.90931672 27.10288338 -12 26 C-12 25.34 -12 24.68 -12 24 C-8.04 24 -4.08 24 0 24 C0 16.08 0 8.16 0 0 Z " fill="#E1E1E1" transform="translate(364,532)"/>
<path d="M0 0 C0.33 0 0.66 0 1 0 C1 33.66 1 67.32 1 102 C20.14 102 39.28 102 59 102 C59 102.33 59 102.66 59 103 C39.86 103 20.72 103 1 103 C1 123.13 1 143.26 1 164 C-0.32 164 -1.64 164 -3 164 C-3.02320285 156.65448359 -3.04095554 149.30897513 -3.05181217 141.96342945 C-3.05702364 138.55234797 -3.06408968 135.14129163 -3.07543945 131.73022461 C-3.08841505 127.80582992 -3.09324258 123.88144529 -3.09765625 119.95703125 C-3.10281754 118.73603226 -3.10797882 117.51503326 -3.11329651 116.2570343 C-3.11337204 115.1162291 -3.11344757 113.97542389 -3.11352539 112.80004883 C-3.115746 111.79855301 -3.11796661 110.79705719 -3.12025452 109.76521301 C-3.00323381 107.07436047 -2.60430354 104.62058175 -2 102 C-1.34 102 -0.68 102 0 102 C0 81.87 0 61.74 0 41 C-1.65 40.67 -3.3 40.34 -5 40 C-5.33 39.34 -5.66 38.68 -6 38 C-4.02 38.66 -2.04 39.32 0 40 C0 26.8 0 13.6 0 0 Z " fill="#EEEEEE" transform="translate(780,330)"/>
<path d="M0 0 C0.33 0 0.66 0 1 0 C1 20.13 1 40.26 1 61 C27.4 61 53.8 61 81 61 C81 61.33 81 61.66 81 62 C74.73 62 68.46 62 62 62 C62 68.93 62 75.86 62 83 C61.67 83 61.34 83 61 83 C61 76.07 61 69.14 61 62 C41.2 62 21.4 62 1 62 C1.08378906 67.51203125 1.16757813 73.0240625 1.25390625 78.703125 C1.30461696 82.19400418 1.35501707 85.6848823 1.40429688 89.17578125 C1.48255471 94.71733542 1.56196528 100.25885634 1.64819336 105.80029297 C1.71763592 110.26762967 1.78194793 114.7350134 1.84269524 119.2024765 C1.86678082 120.90734288 1.89271863 122.61218412 1.92053413 124.31699371 C1.95916145 126.7038022 1.99121734 129.09061495 2.02172852 131.47753906 C2.03467453 132.18316483 2.04762054 132.88879059 2.06095886 133.61579895 C2.09635295 136.90099317 2.02347415 139.85995538 1 143 C-0.18872138 139.43383586 -0.13208696 136.20908659 -0.11352539 132.49926758 C-0.11367142 131.73805099 -0.11381744 130.97683441 -0.1139679 130.19255066 C-0.11327124 127.6765152 -0.10549038 125.16055378 -0.09765625 122.64453125 C-0.09579119 120.90004008 -0.0943677 119.1555484 -0.09336853 117.41105652 C-0.08955026 112.81941278 -0.07972584 108.22780067 -0.06866455 103.63616943 C-0.05843561 98.95081002 -0.05386773 94.26544549 -0.04882812 89.58007812 C-0.03810297 80.38670262 -0.02051173 71.19335889 0 62 C-6.27 62 -12.54 62 -19 62 C-19.33 62.99 -19.66 63.98 -20 65 C-20 63.68 -20 62.36 -20 61 C-13.4 61 -6.8 61 0 61 C0 40.87 0 20.74 0 0 Z " fill="#EDEDED" transform="translate(243,371)"/>
<path d="M0 0 C12.21 0 24.42 0 37 0 C37 1.65 37 3.3 37 5 C35 7 35 7 31.56005859 7.22705078 C30.08948021 7.22673369 28.61887858 7.21540987 27.1484375 7.1953125 C26.37440582 7.1924826 25.60037415 7.18965271 24.80288696 7.18673706 C22.32676843 7.17552754 19.8510095 7.15042203 17.375 7.125 C15.69792188 7.11497118 14.02083811 7.10584516 12.34375 7.09765625 C8.22902777 7.07558574 4.11457489 7.04105102 0 7 C0 4.69 0 2.38 0 0 Z " fill="#E5E4E5" transform="translate(608,433)"/>
<path d="M0 0 C6.93 3.96 6.93 3.96 14 8 C14 8.66 14 9.32 14 10 C14.721875 10.20625 15.44375 10.4125 16.1875 10.625 C19 12 19 12 24 18 C16.08 18 8.16 18 0 18 C0 12.06 0 6.12 0 0 Z " fill="#E0E0E0" transform="translate(365,724)"/>
<path d="M0 0 C0.33 0 0.66 0 1 0 C1.0501123 0.67877197 1.10022461 1.35754395 1.15185547 2.05688477 C2.39112976 18.65782102 3.95870046 34.996879 7.03491211 51.36914062 C7.64560049 54.66913862 8 57.62671117 8 61 C5.36 61 2.72 61 0 61 C0 40.87 0 20.74 0 0 Z " fill="#E2E2E2" transform="translate(183,433)"/>
<path d="M0 0 C9.57 0 19.14 0 29 0 C29 2.31 29 4.62 29 7 C19.33456945 8.1922117 9.71824449 8.09622024 0 8 C0 5.36 0 2.72 0 0 Z " fill="#E1E1E1" transform="translate(548,495)"/>
<path d="M0 0 C0.66 0 1.32 0 2 0 C2.37511719 0.79664063 2.75023437 1.59328125 3.13671875 2.4140625 C3.64847656 3.47367188 4.16023438 4.53328125 4.6875 5.625 C5.18636719 6.66914062 5.68523437 7.71328125 6.19921875 8.7890625 C8.24393482 12.66398877 8.24393482 12.66398877 13 18 C4.42 18 -4.16 18 -13 18 C-11.35 16.68 -9.7 15.36 -8 14 C-6.24380396 11.85580583 -6.24380396 11.85580583 -4.8125 9.5625 C-4.07966797 8.45068359 -4.07966797 8.45068359 -3.33203125 7.31640625 C-1.96573409 4.94041148 -0.95485135 2.56588017 0 0 Z " fill="#F0F1F0" transform="translate(1063,848)"/>
<path d="M0 0 C1.32 0.33 2.64 0.66 4 1 C3.01 1 2.02 1 1 1 C1 8.26 1 15.52 1 23 C15.85 23 30.7 23 46 23 C46 23.33 46 23.66 46 24 C31.15 24 16.3 24 1 24 C1 26.31 1 28.62 1 31 C-0.41791408 30.54554036 -1.83428046 30.08625056 -3.25 29.625 C-4.43335938 29.24214844 -4.43335938 29.24214844 -5.640625 28.8515625 C-7.86627958 28.04826333 -9.90931672 27.10288338 -12 26 C-12 25.34 -12 24.68 -12 24 C-8.04 24 -4.08 24 0 24 C0 16.08 0 8.16 0 0 Z " fill="#ECECEC" transform="translate(364,532)"/>
<path d="M0 0 C0.99 0 1.98 0 3 0 C3 2.31 3 4.62 3 7 C3.99 7.33 4.98 7.66 6 8 C5.01 8 4.02 8 3 8 C3 28.13 3 48.26 3 69 C2.67 69 2.34 69 2 69 C2 48.54 2 28.08 2 7 C-0.64 7 -3.28 7 -6 7 C-5.34 6.67 -4.68 6.34 -4 6 C-3.3162955 4.67532254 -2.65035814 3.34136367 -2 2 C-1.34 1.34 -0.68 0.68 0 0 Z " fill="#EBECEC" transform="translate(718,735)"/>
<path d="M0 0 C0.66 0.33 1.32 0.66 2 1 C-3.94 6.445 -3.94 6.445 -10 12 C-0.16703773 12.80775305 9.5074487 13.12781475 19.375 13.0625 C20.70833161 13.05746427 22.04166511 13.0529051 23.375 13.04882812 C26.58338361 13.03720355 29.79166551 13.02086669 33 13 C33 13.33 33 13.66 33 14 C17.99782788 15.09819822 3.03672639 15.10881621 -12 15 C-12.33 13.68 -12.66 12.36 -13 11 C-8.71 7.37 -4.42 3.74 0 0 Z " fill="#F2F2F2" transform="translate(210,349)"/>
<path d="M0 0 C0.33 0 0.66 0 1 0 C1 1.98 1 3.96 1 6 C13.21 6 25.42 6 38 6 C38 6.33 38 6.66 38 7 C25.79 7 13.58 7 1 7 C1 16.57 1 26.14 1 36 C0.67 36 0.34 36 0 36 C0 26.43 0 16.86 0 7 C-6.66517146 7.55183975 -6.66517146 7.55183975 -12 10 C-11.0625 8 -11.0625 8 -9 6 C-5.97465051 5.63524155 -3.03336186 5.77106703 0 6 C0 4.02 0 2.04 0 0 Z " fill="#EFEFEF" transform="translate(364,303)"/>
<path d="M0 0 C6.13014025 3.299343 6.13014025 3.299343 7.453125 5.9453125 C4.67498695 4.88308325 2.1994377 3.79310012 -0.359375 2.2578125 C-4.42807009 0.58246746 -7.38338274 0.52321432 -11.546875 1.9453125 C-14.7254991 4.5152639 -16.25415609 6.06715577 -17.546875 9.9453125 C-17.62709499 11.35356143 -17.65453477 12.76528481 -17.64453125 14.17578125 C-17.64130859 14.97822266 -17.63808594 15.78066406 -17.63476562 16.60742188 C-17.62638672 17.44080078 -17.61800781 18.27417969 -17.609375 19.1328125 C-17.60486328 19.97779297 -17.60035156 20.82277344 -17.59570312 21.69335938 C-17.58392903 23.77737405 -17.5659939 25.86135227 -17.546875 27.9453125 C-21.02426035 22.72923448 -21.1653814 18.04447279 -20.546875 11.9453125 C-19.32601221 7.23437456 -17.88459587 3.24481277 -14.359375 -0.1796875 C-9.31655304 -1.74856544 -4.95212616 -2.05072709 0 0 Z " fill="#EFF0F0" transform="translate(296.546875,511.0546875)"/>
<path d="M0 0 C-0.78375 0.45375 -1.5675 0.9075 -2.375 1.375 C-5.03698031 2.88428742 -5.03698031 2.88428742 -7 5 C-7.17502995 7.58103306 -7.23162279 10.05308163 -7.1953125 12.6328125 C-7.1924826 13.38464813 -7.18965271 14.13648376 -7.18673706 14.91110229 C-7.17552874 17.31589578 -7.15042352 19.72031881 -7.125 22.125 C-7.11497102 23.75390088 -7.10584503 25.38280758 -7.09765625 27.01171875 C-7.07558735 31.00795556 -7.04105351 35.00391494 -7 39 C-6.505 38.505 -6.505 38.505 -6 38 C-4.00041636 37.95919217 -1.99954746 37.95745644 0 38 C0 38.33 0 38.66 0 39 C-2.97 39.66 -5.94 40.32 -9 41 C-9.12352165 35.50081611 -9.2143009 30.00243782 -9.2746582 24.50219727 C-9.29981578 22.63096046 -9.33394593 20.75982205 -9.37719727 18.88891602 C-9.43779677 16.20043697 -9.46619603 13.51325564 -9.48828125 10.82421875 C-9.51408768 9.98662521 -9.5398941 9.14903168 -9.56648254 8.28605652 C-9.56762695 5.9206543 -9.56762695 5.9206543 -9 2 C-5.86725588 -0.71923343 -3.91529089 -1.59511851 0 0 Z " fill="#EBEBEC" transform="translate(556,153)"/>
<path d="M0 0 C1.35591933 0.0552874 2.71205741 0.10545832 4.06835938 0.15039062 C7.36373303 0.27939102 10.64773838 0.45955354 13.9375 0.6875 C13.9375 1.0175 13.9375 1.3475 13.9375 1.6875 C13.17719482 1.65495117 12.41688965 1.62240234 11.63354492 1.58886719 C-3.61824368 0.34122335 -3.61824368 0.34122335 -17.3046875 5.42578125 C-20.04909908 8.22790341 -22.14339663 11.27633235 -24.0625 14.6875 C-24.0625 9.7135814 -21.12362669 6.78000252 -18.01220703 3.07958984 C-12.56614916 -1.33693681 -6.69465146 -0.4718261 0 0 Z " fill="#F0EFEF" transform="translate(594.0625,617.3125)"/>
<path d="M0 0 C3.96 0 7.92 0 12 0 C12 2.31 12 4.62 12 7 C8.04 5.35 4.08 3.7 0 2 C0 1.34 0 0.68 0 0 Z " fill="#E4E5E5" transform="translate(352,556)"/>
<path d="M0 0 C0.33 0 0.66 0 1 0 C1.37584704 7.51694085 -0.01329367 13.77805402 -2 21 C-2.56791569 23.24863915 -3.13061738 25.4986031 -3.6875 27.75 C-4.125 29.5 -4.5625 31.25 -5 33 C-6.24044073 29.39709826 -5.77378141 26.72736088 -5.0390625 23.02734375 C-4.70261719 21.30741211 -4.70261719 21.30741211 -4.359375 19.55273438 C-4.11703125 18.35970703 -3.8746875 17.16667969 -3.625 15.9375 C-3.39039063 14.74060547 -3.15578125 13.54371094 -2.9140625 12.31054688 C-1.17195085 3.51585255 -1.17195085 3.51585255 0 0 Z " fill="#F0F0F0" transform="translate(908,495)"/>
<path d="M0 0 C0 0.66 0 1.32 0 2 C-6.88023305 5.59727921 -13.55620912 8.76686274 -21 11 C-19.77488066 8.54976132 -18.89901003 8.27380371 -16.47265625 7.08984375 C-15.76302734 6.73986328 -15.05339844 6.38988281 -14.32226562 6.02929688 C-13.57654297 5.66900391 -12.83082031 5.30871094 -12.0625 4.9375 C-11.32064453 4.57333984 -10.57878906 4.20917969 -9.81445312 3.83398438 C-8.43760506 3.15866724 -7.05954459 2.48581273 -5.67993164 1.81616211 C-1.94166916 0 -1.94166916 0 0 0 Z " fill="#EEEFEF" transform="translate(780,623)"/>
<path d="M0 0 C0.33 0 0.66 0 1 0 C1 1.98 1 3.96 1 6 C-1.64 6 -4.28 6 -7 6 C-6.21625 5.38125 -5.4325 4.7625 -4.625 4.125 C-2.03162353 2.10141339 -2.03162353 2.10141339 0 0 Z " fill="#DFE1E0" transform="translate(719,736)"/>
<path d="M0 0 C0.99 0.33 1.98 0.66 3 1 C0.03 3.97 -2.94 6.94 -6 10 C-6 7 -6 7 -4 4 C-3.34 4 -2.68 4 -2 4 C-1.34 2.68 -0.68 1.36 0 0 Z " fill="#EDECED" transform="translate(746,619)"/>
<path d="M0 0 C4.72065967 1.54269924 9.41664092 3.07794619 14 5 C13.67 5.66 13.34 6.32 13 7 C11.453125 6.2884375 11.453125 6.2884375 9.875 5.5625 C6.61465838 4.15477612 3.53948917 3.43164502 0 3 C0 2.01 0 1.02 0 0 Z " fill="#EDEEEE" transform="translate(397,548)"/>
</svg>
